0
SECTION
2
HEADER
9
$INSUNITS
70
5
9
$ACADVER
1
AC1014
9
$HANDSEED
5
FFFF
0
ENDSEC
0
SECTION
2
TABLES
0
TABLE
2
VPORT
5
8
100
AcDbSymbolTable
0
ENDTAB
0
TABLE
2
LTYPE
5
5
100
AcDbSymbolTable
0
LTYPE
5
14
100
AcDbSymbolTableRecord
100
AcDbLinetypeTableRecord
2
BYBLOCK
70
0
0
LTYPE
5
15
100
AcDbSymbolTableRecord
100
AcDbLinetypeTableRecord
2
BYLAYER
70
0
0
LTYPE
5
16
100
AcDbSymbolTableRecord
100
AcDbLinetypeTableRecord
2
DASHED
70
0
3
Dashed __ __ __ __ __ __ __ __ __ __ __ __ __ _
72
65
73
2
40
0.75
49
0.5
74
0
49
-0.25
74
0
0
ENDTAB
0
TABLE
2
LAYER
5
2
100
AcDbSymbolTable
70
2
0
LAYER
5
50
100
AcDbSymbolTableRecord
100
AcDbLayerTableRecord
2
0
70
0
62
7
6
CONTINUOUS
0
ENDTAB
0
TABLE
2
STYLE
5
3
100
AcDbSymbolTable
70
1
0
STYLE
5
11
100
AcDbSymbolTableRecord
100
AcDbTextStyleTableRecord
2
STANDARD
70
0
0
ENDTAB
0
TABLE
2
VIEW
5
6
100
AcDbSymbolTable
70
0
0
ENDTAB
0
TABLE
2
UCS
5
7
100
AcDbSymbolTable
70
0
0
ENDTAB
0
TABLE
2
APPID
5
9
100
AcDbSymbolTable
70
2
0
APPID
5
12
100
AcDbSymbolTableRecord
100
AcDbRegAppTableRecord
2
ACAD
70
0
0
ENDTAB
0
TABLE
2
DIMSTYLE
5
A
100
AcDbSymbolTable
70
1
0
ENDTAB
0
TABLE
2
BLOCK_RECORD
5
1
100
AcDbSymbolTable
70
1
0
BLOCK_RECORD
5
1F
100
AcDbSymbolTableRecord
100
AcDbBlockTableRecord
2
*MODEL_SPACE
0
BLOCK_RECORD
5
1B
100
AcDbSymbolTableRecord
100
AcDbBlockTableRecord
2
*PAPER_SPACE
0
ENDTAB
0
ENDSEC
0
SECTION
2
BLOCKS
0
BLOCK
5
20
100
AcDbEntity
100
AcDbBlockBegin
2
*MODEL_SPACE
0
ENDBLK
5
21
100
AcDbEntity
100
AcDbBlockEnd
0
BLOCK
5
1C
100
AcDbEntity
100
AcDbBlockBegin
2
*PAPER_SPACE
0
ENDBLK
5
1D
100
AcDbEntity
100
AcDbBlockEnd
0
ENDSEC
0
SECTION
2
ENTITIES
0
LWPOLYLINE
5
100
100
AcDbEntity
8
0
100
AcDbPolyline
90
4
70
1
43
0.0
10
-12.181330859591235
20
7.1483647047108194
10
-12.431330859591236
20
6.7153520028186016
10
-11.565305455806799
20
6.2153520028186025
10
-11.315305455806799
20
6.648364704710823
0
LWPOLYLINE
5
101
100
AcDbEntity
8
0
100
AcDbPolyline
90
4
70
1
43
0.0
10
-2.9279800219209786
20
1.2285898384862224
10
-2.6779800219209831
20
1.6616025403784431
10
-3.5440054257054241
20
2.1616025403784453
10
-3.7940054257054219
20
1.7285898384862248
0
LINE
5
102
100
AcDbEntity
8
0
100
AcDbLine
10
-15.425847976781837
20
8.3286962117094028
30
0
11
-13.175847976787036
21
12.225810528742887
31
0
0
ARC
5
103
100
AcDbEntity
8
0
100
AcDbCircle
10
-12.74283527489145
20
11.975810528741135
30
0
40
0.50000000000006861
210
0
220
-0
230
1
100
AcDbArc
50
60.000000000000085
51
150.00000000001913
0
LINE
5
104
100
AcDbEntity
8
0
100
AcDbLine
10
-12.492835274891416
20
12.408823230633415
30
0
11
1.7988416312380195
21
4.1575197217084536
31
0
0
ARC
5
105
100
AcDbEntity
8
0
100
AcDbCircle
10
1.548841631238018
20
3.7245070198162309
30
0
40
0.50000000000000311
210
-0
220
0
230
1
100
AcDbArc
50
-24.146528433810293
51
60.00000000000005
0
LINE
5
106
100
AcDbEntity
8
0
100
AcDbLine
10
2.0050927720274543
20
3.5199712123683877
30
0
11
0.16670396790546249
21
0.33578839956329576
31
0
0
ARC
5
107
100
AcDbEntity
8
0
100
AcDbCircle
10
-0.58084064604430896
20
1.0000000000000009
30
0
40
1.0000000000000009
210
0
220
0
230
1
100
AcDbArc
50
270
51
318.37813007636692
0
LINE
5
108
100
AcDbEntity
8
0
100
AcDbLine
10
-0.58084064604430852
20
0
30
0
11
-15.42362360000431
21
0
31
0
0
ARC
5
109
100
AcDbEntity
8
0
100
AcDbCircle
10
-15.42362360000431
20
1.0000000000000031
30
0
40
1.0000000000000018
210
0
220
0
230
1
100
AcDbArc
50
180
51
270
0
LINE
5
110
100
AcDbEntity
8
0
100
AcDbLine
10
-16.423623600004312
20
1.000000000000002
30
0
11
-16.423623600004316
21
2.0000000000000027
31
0
0
ARC
5
111
100
AcDbEntity
8
0
100
AcDbCircle
10
-15.423623600004312
20
2
30
0
40
1.0000000000000036
210
0
220
0
230
1
100
AcDbArc
50
90.000000000000199
51
180
0
LINE
5
112
100
AcDbEntity
8
0
100
AcDbLine
10
-15.423623600004316
20
3.0000000000000036
30
0
11
-15.323623600004309
21
3.0000000000000004
31
0
0
SPLINE
5
113
100
AcDbEntity
8
0
100
AcDbSpline
70
4
71
2
72
6
73
3
74
0
42
0.000000001
43
0.0000000001
44
0.0000000001
40
-13.015739900154767
40
-13.015739900154767
40
-13.015739900154767
40
0
40
0
40
0
41
1
41
3
41
1
10
-15.323623600004309
20
3.0000000000000004
30
0
10
-7.1962753999998865
20
3.0000000000000013
30
0
10
-14.809822572996445
20
7.3956835098174114
30
0
0
LINE
5
114
100
AcDbEntity
8
0
100
AcDbLine
10
-14.809822572996442
20
7.3956835098174087
30
0
11
-15.242835274889263
21
7.6456835098177738
31
0
0
ARC
5
115
100
AcDbEntity
8
0
100
AcDbCircle
10
-14.992835274889268
20
8.0786962117100032
30
0
40
0.50000000000000233
210
0
220
0
230
1
100
AcDbArc
50
150.00000000007964
51
240.00000000000111
0
ENDSEC
0
SECTION
2
OBJECTS
0
DICTIONARY
5
C
100
AcDbDictionary
3
ACAD_GROUP
350
D
3
ACAD_MLINESTYLE
350
17
0
DICTIONARY
5
D
100
AcDbDictionary
0
DICTIONARY
5
1A
330
C
100
AcDbDictionary
0
DICTIONARY
5
17
100
AcDbDictionary
0
ENDSEC
0
EOF
