ISO-10303-21;
HEADER;
/* Generated by software containing ST-Developer
 * from STEP Tools, Inc. (www.steptools.com) 
 */

FILE_DESCRIPTION(
/* description */ (''),
/* implementation_level */ '2;1');

FILE_NAME(
/* name */ 'ES-30.step',
/* time_stamp */ '2026-09-01T21:04:23+02:00',
/* author */ (''),
/* organization */ (''),
/* preprocessor_version */ 'ST-DEVELOPER v20.1',
/* originating_system */ 'Autodesk Translation Framework v15.8.0.0',
/* authorisation */ '');

FILE_SCHEMA (('AUTOMOTIVE_DESIGN { 1 0 10303 214 3 1 1 }'));
ENDSEC;

DATA;
#10=MECHANICAL_DESIGN_GEOMETRIC_PRESENTATION_REPRESENTATION('',(#13),#799);
#11=SHAPE_REPRESENTATION_RELATIONSHIP('SRR','None',#806,#12);
#12=ADVANCED_BREP_SHAPE_REPRESENTATION('',(#14),#798);
#13=STYLED_ITEM('',(#815),#14);
#14=MANIFOLD_SOLID_BREP('Body1',#479);
#15=FACE_BOUND('',#87,.T.);
#16=FACE_BOUND('',#88,.T.);
#17=FACE_BOUND('',#90,.T.);
#18=FACE_BOUND('',#91,.T.);
#19=(
BOUNDED_CURVE()
B_SPLINE_CURVE(2,(#729,#730,#731),.UNSPECIFIED.,.F.,.F.)
B_SPLINE_CURVE_WITH_KNOTS((3,3),(0.,13.0157399001548),.UNSPECIFIED.)
CURVE()
GEOMETRIC_REPRESENTATION_ITEM()
RATIONAL_B_SPLINE_CURVE((1.,3.,1.))
REPRESENTATION_ITEM('')
);
#20=(
BOUNDED_CURVE()
B_SPLINE_CURVE(2,(#733,#734,#735),.UNSPECIFIED.,.F.,.F.)
B_SPLINE_CURVE_WITH_KNOTS((3,3),(-13.0157399001548,0.),.UNSPECIFIED.)
CURVE()
GEOMETRIC_REPRESENTATION_ITEM()
RATIONAL_B_SPLINE_CURVE((1.,3.,1.))
REPRESENTATION_ITEM('')
);
#21=(
BOUNDED_SURFACE()
B_SPLINE_SURFACE(2,1,((#722,#723),(#724,#725),(#726,#727)),
 .UNSPECIFIED.,.F.,.F.,.F.)
B_SPLINE_SURFACE_WITH_KNOTS((3,3),(2,2),(-13.0157399001548,0.),(0.,0.5),
 .UNSPECIFIED.)
GEOMETRIC_REPRESENTATION_ITEM()
RATIONAL_B_SPLINE_SURFACE(((1.,1.),(3.,3.),(1.,1.)))
REPRESENTATION_ITEM('')
SURFACE()
);
#22=CIRCLE('',#503,5.00000000000005);
#23=CIRCLE('',#504,5.00000000000005);
#24=CIRCLE('',#508,10.);
#25=CIRCLE('',#509,10.);
#26=CIRCLE('',#512,10.);
#27=CIRCLE('',#513,10.);
#28=CIRCLE('',#516,10.);
#29=CIRCLE('',#517,10.);
#30=CIRCLE('',#520,5.00000000000003);
#31=CIRCLE('',#521,5.00000000000003);
#32=CIRCLE('',#524,5.00000000000069);
#33=CIRCLE('',#525,5.00000000000069);
#34=CYLINDRICAL_SURFACE('',#502,5.00000000000005);
#35=CYLINDRICAL_SURFACE('',#507,10.);
#36=CYLINDRICAL_SURFACE('',#511,10.);
#37=CYLINDRICAL_SURFACE('',#515,10.);
#38=CYLINDRICAL_SURFACE('',#519,5.00000000000003);
#39=CYLINDRICAL_SURFACE('',#523,5.00000000000069);
#40=FACE_OUTER_BOUND('',#64,.T.);
#41=FACE_OUTER_BOUND('',#65,.T.);
#42=FACE_OUTER_BOUND('',#66,.T.);
#43=FACE_OUTER_BOUND('',#67,.T.);
#44=FACE_OUTER_BOUND('',#68,.T.);
#45=FACE_OUTER_BOUND('',#69,.T.);
#46=FACE_OUTER_BOUND('',#70,.T.);
#47=FACE_OUTER_BOUND('',#71,.T.);
#48=FACE_OUTER_BOUND('',#72,.T.);
#49=FACE_OUTER_BOUND('',#73,.T.);
#50=FACE_OUTER_BOUND('',#74,.T.);
#51=FACE_OUTER_BOUND('',#75,.T.);
#52=FACE_OUTER_BOUND('',#76,.T.);
#53=FACE_OUTER_BOUND('',#77,.T.);
#54=FACE_OUTER_BOUND('',#78,.T.);
#55=FACE_OUTER_BOUND('',#79,.T.);
#56=FACE_OUTER_BOUND('',#80,.T.);
#57=FACE_OUTER_BOUND('',#81,.T.);
#58=FACE_OUTER_BOUND('',#82,.T.);
#59=FACE_OUTER_BOUND('',#83,.T.);
#60=FACE_OUTER_BOUND('',#84,.T.);
#61=FACE_OUTER_BOUND('',#85,.T.);
#62=FACE_OUTER_BOUND('',#86,.T.);
#63=FACE_OUTER_BOUND('',#89,.T.);
#64=EDGE_LOOP('',(#306,#307,#308,#309));
#65=EDGE_LOOP('',(#310,#311,#312,#313));
#66=EDGE_LOOP('',(#314,#315,#316,#317));
#67=EDGE_LOOP('',(#318,#319,#320,#321));
#68=EDGE_LOOP('',(#322,#323,#324,#325));
#69=EDGE_LOOP('',(#326,#327,#328,#329));
#70=EDGE_LOOP('',(#330,#331,#332,#333));
#71=EDGE_LOOP('',(#334,#335,#336,#337));
#72=EDGE_LOOP('',(#338,#339,#340,#341));
#73=EDGE_LOOP('',(#342,#343,#344,#345));
#74=EDGE_LOOP('',(#346,#347,#348,#349));
#75=EDGE_LOOP('',(#350,#351,#352,#353));
#76=EDGE_LOOP('',(#354,#355,#356,#357));
#77=EDGE_LOOP('',(#358,#359,#360,#361));
#78=EDGE_LOOP('',(#362,#363,#364,#365));
#79=EDGE_LOOP('',(#366,#367,#368,#369));
#80=EDGE_LOOP('',(#370,#371,#372,#373));
#81=EDGE_LOOP('',(#374,#375,#376,#377));
#82=EDGE_LOOP('',(#378,#379,#380,#381));
#83=EDGE_LOOP('',(#382,#383,#384,#385));
#84=EDGE_LOOP('',(#386,#387,#388,#389));
#85=EDGE_LOOP('',(#390,#391,#392,#393));
#86=EDGE_LOOP('',(#394,#395,#396,#397,#398,#399,#400,#401,#402,#403,#404,
#405,#406,#407));
#87=EDGE_LOOP('',(#408,#409,#410,#411));
#88=EDGE_LOOP('',(#412,#413,#414,#415));
#89=EDGE_LOOP('',(#416,#417,#418,#419,#420,#421,#422,#423,#424,#425,#426,
#427,#428,#429));
#90=EDGE_LOOP('',(#430,#431,#432,#433));
#91=EDGE_LOOP('',(#434,#435,#436,#437));
#92=LINE('',#656,#144);
#93=LINE('',#658,#145);
#94=LINE('',#660,#146);
#95=LINE('',#661,#147);
#96=LINE('',#664,#148);
#97=LINE('',#666,#149);
#98=LINE('',#667,#150);
#99=LINE('',#670,#151);
#100=LINE('',#672,#152);
#101=LINE('',#673,#153);
#102=LINE('',#675,#154);
#103=LINE('',#676,#155);
#104=LINE('',#680,#156);
#105=LINE('',#682,#157);
#106=LINE('',#684,#158);
#107=LINE('',#685,#159);
#108=LINE('',#688,#160);
#109=LINE('',#690,#161);
#110=LINE('',#691,#162);
#111=LINE('',#694,#163);
#112=LINE('',#696,#164);
#113=LINE('',#697,#165);
#114=LINE('',#699,#166);
#115=LINE('',#700,#167);
#116=LINE('',#704,#168);
#117=LINE('',#706,#169);
#118=LINE('',#708,#170);
#119=LINE('',#709,#171);
#120=LINE('',#715,#172);
#121=LINE('',#718,#173);
#122=LINE('',#720,#174);
#123=LINE('',#721,#175);
#124=LINE('',#736,#176);
#125=LINE('',#739,#177);
#126=LINE('',#741,#178);
#127=LINE('',#742,#179);
#128=LINE('',#748,#180);
#129=LINE('',#751,#181);
#130=LINE('',#753,#182);
#131=LINE('',#754,#183);
#132=LINE('',#760,#184);
#133=LINE('',#763,#185);
#134=LINE('',#765,#186);
#135=LINE('',#766,#187);
#136=LINE('',#772,#188);
#137=LINE('',#775,#189);
#138=LINE('',#777,#190);
#139=LINE('',#778,#191);
#140=LINE('',#784,#192);
#141=LINE('',#787,#193);
#142=LINE('',#789,#194);
#143=LINE('',#790,#195);
#144=VECTOR('',#532,10.);
#145=VECTOR('',#533,10.);
#146=VECTOR('',#534,10.);
#147=VECTOR('',#535,10.);
#148=VECTOR('',#538,10.);
#149=VECTOR('',#539,10.);
#150=VECTOR('',#540,10.);
#151=VECTOR('',#543,10.);
#152=VECTOR('',#544,10.);
#153=VECTOR('',#545,10.);
#154=VECTOR('',#548,10.);
#155=VECTOR('',#549,10.);
#156=VECTOR('',#552,10.);
#157=VECTOR('',#553,10.);
#158=VECTOR('',#554,10.);
#159=VECTOR('',#555,10.);
#160=VECTOR('',#558,10.);
#161=VECTOR('',#559,10.);
#162=VECTOR('',#560,10.);
#163=VECTOR('',#563,10.);
#164=VECTOR('',#564,10.);
#165=VECTOR('',#565,10.);
#166=VECTOR('',#568,10.);
#167=VECTOR('',#569,10.);
#168=VECTOR('',#572,10.);
#169=VECTOR('',#573,10.);
#170=VECTOR('',#574,10.);
#171=VECTOR('',#575,10.);
#172=VECTOR('',#582,10.);
#173=VECTOR('',#585,10.);
#174=VECTOR('',#586,10.);
#175=VECTOR('',#587,10.);
#176=VECTOR('',#588,10.);
#177=VECTOR('',#591,10.);
#178=VECTOR('',#592,10.);
#179=VECTOR('',#593,10.);
#180=VECTOR('',#600,10.);
#181=VECTOR('',#603,10.);
#182=VECTOR('',#604,10.);
#183=VECTOR('',#605,10.);
#184=VECTOR('',#612,10.);
#185=VECTOR('',#615,10.);
#186=VECTOR('',#616,10.);
#187=VECTOR('',#617,10.);
#188=VECTOR('',#624,10.);
#189=VECTOR('',#627,10.);
#190=VECTOR('',#628,10.);
#191=VECTOR('',#629,10.);
#192=VECTOR('',#636,10.);
#193=VECTOR('',#639,10.);
#194=VECTOR('',#640,10.);
#195=VECTOR('',#641,10.);
#196=VERTEX_POINT('',#654);
#197=VERTEX_POINT('',#655);
#198=VERTEX_POINT('',#657);
#199=VERTEX_POINT('',#659);
#200=VERTEX_POINT('',#663);
#201=VERTEX_POINT('',#665);
#202=VERTEX_POINT('',#669);
#203=VERTEX_POINT('',#671);
#204=VERTEX_POINT('',#678);
#205=VERTEX_POINT('',#679);
#206=VERTEX_POINT('',#681);
#207=VERTEX_POINT('',#683);
#208=VERTEX_POINT('',#687);
#209=VERTEX_POINT('',#689);
#210=VERTEX_POINT('',#693);
#211=VERTEX_POINT('',#695);
#212=VERTEX_POINT('',#702);
#213=VERTEX_POINT('',#703);
#214=VERTEX_POINT('',#705);
#215=VERTEX_POINT('',#707);
#216=VERTEX_POINT('',#711);
#217=VERTEX_POINT('',#713);
#218=VERTEX_POINT('',#717);
#219=VERTEX_POINT('',#719);
#220=VERTEX_POINT('',#728);
#221=VERTEX_POINT('',#732);
#222=VERTEX_POINT('',#738);
#223=VERTEX_POINT('',#740);
#224=VERTEX_POINT('',#744);
#225=VERTEX_POINT('',#746);
#226=VERTEX_POINT('',#750);
#227=VERTEX_POINT('',#752);
#228=VERTEX_POINT('',#756);
#229=VERTEX_POINT('',#758);
#230=VERTEX_POINT('',#762);
#231=VERTEX_POINT('',#764);
#232=VERTEX_POINT('',#768);
#233=VERTEX_POINT('',#770);
#234=VERTEX_POINT('',#774);
#235=VERTEX_POINT('',#776);
#236=VERTEX_POINT('',#780);
#237=VERTEX_POINT('',#782);
#238=VERTEX_POINT('',#786);
#239=VERTEX_POINT('',#788);
#240=EDGE_CURVE('',#196,#197,#92,.T.);
#241=EDGE_CURVE('',#196,#198,#93,.T.);
#242=EDGE_CURVE('',#199,#198,#94,.T.);
#243=EDGE_CURVE('',#197,#199,#95,.T.);
#244=EDGE_CURVE('',#200,#196,#96,.T.);
#245=EDGE_CURVE('',#200,#201,#97,.T.);
#246=EDGE_CURVE('',#198,#201,#98,.T.);
#247=EDGE_CURVE('',#202,#200,#99,.T.);
#248=EDGE_CURVE('',#202,#203,#100,.T.);
#249=EDGE_CURVE('',#201,#203,#101,.T.);
#250=EDGE_CURVE('',#197,#202,#102,.T.);
#251=EDGE_CURVE('',#203,#199,#103,.T.);
#252=EDGE_CURVE('',#204,#205,#104,.T.);
#253=EDGE_CURVE('',#204,#206,#105,.T.);
#254=EDGE_CURVE('',#207,#206,#106,.T.);
#255=EDGE_CURVE('',#205,#207,#107,.T.);
#256=EDGE_CURVE('',#208,#204,#108,.T.);
#257=EDGE_CURVE('',#208,#209,#109,.T.);
#258=EDGE_CURVE('',#206,#209,#110,.T.);
#259=EDGE_CURVE('',#210,#208,#111,.T.);
#260=EDGE_CURVE('',#210,#211,#112,.T.);
#261=EDGE_CURVE('',#209,#211,#113,.T.);
#262=EDGE_CURVE('',#205,#210,#114,.T.);
#263=EDGE_CURVE('',#211,#207,#115,.T.);
#264=EDGE_CURVE('',#212,#213,#116,.T.);
#265=EDGE_CURVE('',#212,#214,#117,.T.);
#266=EDGE_CURVE('',#215,#214,#118,.T.);
#267=EDGE_CURVE('',#213,#215,#119,.T.);
#268=EDGE_CURVE('',#216,#213,#22,.T.);
#269=EDGE_CURVE('',#217,#215,#23,.T.);
#270=EDGE_CURVE('',#216,#217,#120,.T.);
#271=EDGE_CURVE('',#216,#218,#121,.T.);
#272=EDGE_CURVE('',#219,#217,#122,.T.);
#273=EDGE_CURVE('',#218,#219,#123,.T.);
#274=EDGE_CURVE('',#218,#220,#19,.T.);
#275=EDGE_CURVE('',#221,#219,#20,.T.);
#276=EDGE_CURVE('',#220,#221,#124,.T.);
#277=EDGE_CURVE('',#222,#220,#125,.T.);
#278=EDGE_CURVE('',#223,#221,#126,.T.);
#279=EDGE_CURVE('',#222,#223,#127,.T.);
#280=EDGE_CURVE('',#224,#222,#24,.T.);
#281=EDGE_CURVE('',#225,#223,#25,.T.);
#282=EDGE_CURVE('',#224,#225,#128,.T.);
#283=EDGE_CURVE('',#226,#224,#129,.T.);
#284=EDGE_CURVE('',#227,#225,#130,.T.);
#285=EDGE_CURVE('',#226,#227,#131,.T.);
#286=EDGE_CURVE('',#228,#226,#26,.T.);
#287=EDGE_CURVE('',#229,#227,#27,.T.);
#288=EDGE_CURVE('',#228,#229,#132,.T.);
#289=EDGE_CURVE('',#230,#228,#133,.T.);
#290=EDGE_CURVE('',#231,#229,#134,.T.);
#291=EDGE_CURVE('',#230,#231,#135,.T.);
#292=EDGE_CURVE('',#232,#230,#28,.T.);
#293=EDGE_CURVE('',#233,#231,#29,.T.);
#294=EDGE_CURVE('',#232,#233,#136,.T.);
#295=EDGE_CURVE('',#234,#232,#137,.T.);
#296=EDGE_CURVE('',#235,#233,#138,.T.);
#297=EDGE_CURVE('',#234,#235,#139,.T.);
#298=EDGE_CURVE('',#236,#234,#30,.T.);
#299=EDGE_CURVE('',#237,#235,#31,.T.);
#300=EDGE_CURVE('',#236,#237,#140,.T.);
#301=EDGE_CURVE('',#236,#238,#141,.T.);
#302=EDGE_CURVE('',#239,#237,#142,.T.);
#303=EDGE_CURVE('',#238,#239,#143,.T.);
#304=EDGE_CURVE('',#212,#238,#32,.T.);
#305=EDGE_CURVE('',#214,#239,#33,.T.);
#306=ORIENTED_EDGE('',*,*,#240,.F.);
#307=ORIENTED_EDGE('',*,*,#241,.T.);
#308=ORIENTED_EDGE('',*,*,#242,.F.);
#309=ORIENTED_EDGE('',*,*,#243,.F.);
#310=ORIENTED_EDGE('',*,*,#244,.F.);
#311=ORIENTED_EDGE('',*,*,#245,.T.);
#312=ORIENTED_EDGE('',*,*,#246,.F.);
#313=ORIENTED_EDGE('',*,*,#241,.F.);
#314=ORIENTED_EDGE('',*,*,#247,.F.);
#315=ORIENTED_EDGE('',*,*,#248,.T.);
#316=ORIENTED_EDGE('',*,*,#249,.F.);
#317=ORIENTED_EDGE('',*,*,#245,.F.);
#318=ORIENTED_EDGE('',*,*,#250,.F.);
#319=ORIENTED_EDGE('',*,*,#243,.T.);
#320=ORIENTED_EDGE('',*,*,#251,.F.);
#321=ORIENTED_EDGE('',*,*,#248,.F.);
#322=ORIENTED_EDGE('',*,*,#252,.F.);
#323=ORIENTED_EDGE('',*,*,#253,.T.);
#324=ORIENTED_EDGE('',*,*,#254,.F.);
#325=ORIENTED_EDGE('',*,*,#255,.F.);
#326=ORIENTED_EDGE('',*,*,#256,.F.);
#327=ORIENTED_EDGE('',*,*,#257,.T.);
#328=ORIENTED_EDGE('',*,*,#258,.F.);
#329=ORIENTED_EDGE('',*,*,#253,.F.);
#330=ORIENTED_EDGE('',*,*,#259,.F.);
#331=ORIENTED_EDGE('',*,*,#260,.T.);
#332=ORIENTED_EDGE('',*,*,#261,.F.);
#333=ORIENTED_EDGE('',*,*,#257,.F.);
#334=ORIENTED_EDGE('',*,*,#262,.F.);
#335=ORIENTED_EDGE('',*,*,#255,.T.);
#336=ORIENTED_EDGE('',*,*,#263,.F.);
#337=ORIENTED_EDGE('',*,*,#260,.F.);
#338=ORIENTED_EDGE('',*,*,#264,.F.);
#339=ORIENTED_EDGE('',*,*,#265,.T.);
#340=ORIENTED_EDGE('',*,*,#266,.F.);
#341=ORIENTED_EDGE('',*,*,#267,.F.);
#342=ORIENTED_EDGE('',*,*,#268,.T.);
#343=ORIENTED_EDGE('',*,*,#267,.T.);
#344=ORIENTED_EDGE('',*,*,#269,.F.);
#345=ORIENTED_EDGE('',*,*,#270,.F.);
#346=ORIENTED_EDGE('',*,*,#271,.F.);
#347=ORIENTED_EDGE('',*,*,#270,.T.);
#348=ORIENTED_EDGE('',*,*,#272,.F.);
#349=ORIENTED_EDGE('',*,*,#273,.F.);
#350=ORIENTED_EDGE('',*,*,#274,.F.);
#351=ORIENTED_EDGE('',*,*,#273,.T.);
#352=ORIENTED_EDGE('',*,*,#275,.F.);
#353=ORIENTED_EDGE('',*,*,#276,.F.);
#354=ORIENTED_EDGE('',*,*,#277,.T.);
#355=ORIENTED_EDGE('',*,*,#276,.T.);
#356=ORIENTED_EDGE('',*,*,#278,.F.);
#357=ORIENTED_EDGE('',*,*,#279,.F.);
#358=ORIENTED_EDGE('',*,*,#280,.T.);
#359=ORIENTED_EDGE('',*,*,#279,.T.);
#360=ORIENTED_EDGE('',*,*,#281,.F.);
#361=ORIENTED_EDGE('',*,*,#282,.F.);
#362=ORIENTED_EDGE('',*,*,#283,.T.);
#363=ORIENTED_EDGE('',*,*,#282,.T.);
#364=ORIENTED_EDGE('',*,*,#284,.F.);
#365=ORIENTED_EDGE('',*,*,#285,.F.);
#366=ORIENTED_EDGE('',*,*,#286,.T.);
#367=ORIENTED_EDGE('',*,*,#285,.T.);
#368=ORIENTED_EDGE('',*,*,#287,.F.);
#369=ORIENTED_EDGE('',*,*,#288,.F.);
#370=ORIENTED_EDGE('',*,*,#289,.T.);
#371=ORIENTED_EDGE('',*,*,#288,.T.);
#372=ORIENTED_EDGE('',*,*,#290,.F.);
#373=ORIENTED_EDGE('',*,*,#291,.F.);
#374=ORIENTED_EDGE('',*,*,#292,.T.);
#375=ORIENTED_EDGE('',*,*,#291,.T.);
#376=ORIENTED_EDGE('',*,*,#293,.F.);
#377=ORIENTED_EDGE('',*,*,#294,.F.);
#378=ORIENTED_EDGE('',*,*,#295,.T.);
#379=ORIENTED_EDGE('',*,*,#294,.T.);
#380=ORIENTED_EDGE('',*,*,#296,.F.);
#381=ORIENTED_EDGE('',*,*,#297,.F.);
#382=ORIENTED_EDGE('',*,*,#298,.T.);
#383=ORIENTED_EDGE('',*,*,#297,.T.);
#384=ORIENTED_EDGE('',*,*,#299,.F.);
#385=ORIENTED_EDGE('',*,*,#300,.F.);
#386=ORIENTED_EDGE('',*,*,#301,.F.);
#387=ORIENTED_EDGE('',*,*,#300,.T.);
#388=ORIENTED_EDGE('',*,*,#302,.F.);
#389=ORIENTED_EDGE('',*,*,#303,.F.);
#390=ORIENTED_EDGE('',*,*,#304,.T.);
#391=ORIENTED_EDGE('',*,*,#303,.T.);
#392=ORIENTED_EDGE('',*,*,#305,.F.);
#393=ORIENTED_EDGE('',*,*,#265,.F.);
#394=ORIENTED_EDGE('',*,*,#305,.T.);
#395=ORIENTED_EDGE('',*,*,#302,.T.);
#396=ORIENTED_EDGE('',*,*,#299,.T.);
#397=ORIENTED_EDGE('',*,*,#296,.T.);
#398=ORIENTED_EDGE('',*,*,#293,.T.);
#399=ORIENTED_EDGE('',*,*,#290,.T.);
#400=ORIENTED_EDGE('',*,*,#287,.T.);
#401=ORIENTED_EDGE('',*,*,#284,.T.);
#402=ORIENTED_EDGE('',*,*,#281,.T.);
#403=ORIENTED_EDGE('',*,*,#278,.T.);
#404=ORIENTED_EDGE('',*,*,#275,.T.);
#405=ORIENTED_EDGE('',*,*,#272,.T.);
#406=ORIENTED_EDGE('',*,*,#269,.T.);
#407=ORIENTED_EDGE('',*,*,#266,.T.);
#408=ORIENTED_EDGE('',*,*,#242,.T.);
#409=ORIENTED_EDGE('',*,*,#246,.T.);
#410=ORIENTED_EDGE('',*,*,#249,.T.);
#411=ORIENTED_EDGE('',*,*,#251,.T.);
#412=ORIENTED_EDGE('',*,*,#254,.T.);
#413=ORIENTED_EDGE('',*,*,#258,.T.);
#414=ORIENTED_EDGE('',*,*,#261,.T.);
#415=ORIENTED_EDGE('',*,*,#263,.T.);
#416=ORIENTED_EDGE('',*,*,#304,.F.);
#417=ORIENTED_EDGE('',*,*,#264,.T.);
#418=ORIENTED_EDGE('',*,*,#268,.F.);
#419=ORIENTED_EDGE('',*,*,#271,.T.);
#420=ORIENTED_EDGE('',*,*,#274,.T.);
#421=ORIENTED_EDGE('',*,*,#277,.F.);
#422=ORIENTED_EDGE('',*,*,#280,.F.);
#423=ORIENTED_EDGE('',*,*,#283,.F.);
#424=ORIENTED_EDGE('',*,*,#286,.F.);
#425=ORIENTED_EDGE('',*,*,#289,.F.);
#426=ORIENTED_EDGE('',*,*,#292,.F.);
#427=ORIENTED_EDGE('',*,*,#295,.F.);
#428=ORIENTED_EDGE('',*,*,#298,.F.);
#429=ORIENTED_EDGE('',*,*,#301,.T.);
#430=ORIENTED_EDGE('',*,*,#240,.T.);
#431=ORIENTED_EDGE('',*,*,#250,.T.);
#432=ORIENTED_EDGE('',*,*,#247,.T.);
#433=ORIENTED_EDGE('',*,*,#244,.T.);
#434=ORIENTED_EDGE('',*,*,#252,.T.);
#435=ORIENTED_EDGE('',*,*,#262,.T.);
#436=ORIENTED_EDGE('',*,*,#259,.T.);
#437=ORIENTED_EDGE('',*,*,#256,.T.);
#438=PLANE('',#493);
#439=PLANE('',#494);
#440=PLANE('',#495);
#441=PLANE('',#496);
#442=PLANE('',#497);
#443=PLANE('',#498);
#444=PLANE('',#499);
#445=PLANE('',#500);
#446=PLANE('',#501);
#447=PLANE('',#505);
#448=PLANE('',#506);
#449=PLANE('',#510);
#450=PLANE('',#514);
#451=PLANE('',#518);
#452=PLANE('',#522);
#453=PLANE('',#526);
#454=PLANE('',#527);
#455=ADVANCED_FACE('',(#40),#438,.F.);
#456=ADVANCED_FACE('',(#41),#439,.F.);
#457=ADVANCED_FACE('',(#42),#440,.F.);
#458=ADVANCED_FACE('',(#43),#441,.F.);
#459=ADVANCED_FACE('',(#44),#442,.F.);
#460=ADVANCED_FACE('',(#45),#443,.F.);
#461=ADVANCED_FACE('',(#46),#444,.F.);
#462=ADVANCED_FACE('',(#47),#445,.F.);
#463=ADVANCED_FACE('',(#48),#446,.T.);
#464=ADVANCED_FACE('',(#49),#34,.T.);
#465=ADVANCED_FACE('',(#50),#447,.T.);
#466=ADVANCED_FACE('',(#51),#21,.T.);
#467=ADVANCED_FACE('',(#52),#448,.T.);
#468=ADVANCED_FACE('',(#53),#35,.T.);
#469=ADVANCED_FACE('',(#54),#449,.T.);
#470=ADVANCED_FACE('',(#55),#36,.T.);
#471=ADVANCED_FACE('',(#56),#450,.T.);
#472=ADVANCED_FACE('',(#57),#37,.T.);
#473=ADVANCED_FACE('',(#58),#451,.T.);
#474=ADVANCED_FACE('',(#59),#38,.T.);
#475=ADVANCED_FACE('',(#60),#452,.T.);
#476=ADVANCED_FACE('',(#61),#39,.T.);
#477=ADVANCED_FACE('',(#62,#15,#16),#453,.T.);
#478=ADVANCED_FACE('',(#63,#17,#18),#454,.F.);
#479=CLOSED_SHELL('',(#455,#456,#457,#458,#459,#460,#461,#462,#463,#464,
#465,#466,#467,#468,#469,#470,#471,#472,#473,#474,#475,#476,#477,#478));
#480=DERIVED_UNIT_ELEMENT(#482,1.);
#481=DERIVED_UNIT_ELEMENT(#801,-3.);
#482=(
MASS_UNIT()
NAMED_UNIT(*)
SI_UNIT(.KILO.,.GRAM.)
);
#483=DERIVED_UNIT((#480,#481));
#484=MEASURE_REPRESENTATION_ITEM('density measure',
POSITIVE_RATIO_MEASURE(7850.),#483);
#485=PROPERTY_DEFINITION_REPRESENTATION(#490,#487);
#486=PROPERTY_DEFINITION_REPRESENTATION(#491,#488);
#487=REPRESENTATION('material name',(#489),#798);
#488=REPRESENTATION('density',(#484),#798);
#489=DESCRIPTIVE_REPRESENTATION_ITEM('Steel','Steel');
#490=PROPERTY_DEFINITION('material property','material name',#808);
#491=PROPERTY_DEFINITION('material property','density of part',#808);
#492=AXIS2_PLACEMENT_3D('',#652,#528,#529);
#493=AXIS2_PLACEMENT_3D('',#653,#530,#531);
#494=AXIS2_PLACEMENT_3D('',#662,#536,#537);
#495=AXIS2_PLACEMENT_3D('',#668,#541,#542);
#496=AXIS2_PLACEMENT_3D('',#674,#546,#547);
#497=AXIS2_PLACEMENT_3D('',#677,#550,#551);
#498=AXIS2_PLACEMENT_3D('',#686,#556,#557);
#499=AXIS2_PLACEMENT_3D('',#692,#561,#562);
#500=AXIS2_PLACEMENT_3D('',#698,#566,#567);
#501=AXIS2_PLACEMENT_3D('',#701,#570,#571);
#502=AXIS2_PLACEMENT_3D('',#710,#576,#577);
#503=AXIS2_PLACEMENT_3D('',#712,#578,#579);
#504=AXIS2_PLACEMENT_3D('',#714,#580,#581);
#505=AXIS2_PLACEMENT_3D('',#716,#583,#584);
#506=AXIS2_PLACEMENT_3D('',#737,#589,#590);
#507=AXIS2_PLACEMENT_3D('',#743,#594,#595);
#508=AXIS2_PLACEMENT_3D('',#745,#596,#597);
#509=AXIS2_PLACEMENT_3D('',#747,#598,#599);
#510=AXIS2_PLACEMENT_3D('',#749,#601,#602);
#511=AXIS2_PLACEMENT_3D('',#755,#606,#607);
#512=AXIS2_PLACEMENT_3D('',#757,#608,#609);
#513=AXIS2_PLACEMENT_3D('',#759,#610,#611);
#514=AXIS2_PLACEMENT_3D('',#761,#613,#614);
#515=AXIS2_PLACEMENT_3D('',#767,#618,#619);
#516=AXIS2_PLACEMENT_3D('',#769,#620,#621);
#517=AXIS2_PLACEMENT_3D('',#771,#622,#623);
#518=AXIS2_PLACEMENT_3D('',#773,#625,#626);
#519=AXIS2_PLACEMENT_3D('',#779,#630,#631);
#520=AXIS2_PLACEMENT_3D('',#781,#632,#633);
#521=AXIS2_PLACEMENT_3D('',#783,#634,#635);
#522=AXIS2_PLACEMENT_3D('',#785,#637,#638);
#523=AXIS2_PLACEMENT_3D('',#791,#642,#643);
#524=AXIS2_PLACEMENT_3D('',#792,#644,#645);
#525=AXIS2_PLACEMENT_3D('',#793,#646,#647);
#526=AXIS2_PLACEMENT_3D('',#794,#648,#649);
#527=AXIS2_PLACEMENT_3D('',#795,#650,#651);
#528=DIRECTION('axis',(0.,0.,1.));
#529=DIRECTION('refdir',(1.,0.,0.));
#530=DIRECTION('center_axis',(0.,0.500000000000005,-0.866025403784436));
#531=DIRECTION('ref_axis',(0.,0.866025403784436,0.500000000000005));
#532=DIRECTION('',(0.,0.866025403784436,0.500000000000005));
#533=DIRECTION('',(1.,0.,0.));
#534=DIRECTION('',(0.,-0.866025403784436,-0.500000000000005));
#535=DIRECTION('',(1.,0.,0.));
#536=DIRECTION('center_axis',(0.,-0.866025403784438,-0.500000000000001));
#537=DIRECTION('ref_axis',(0.,0.500000000000001,-0.866025403784438));
#538=DIRECTION('',(0.,0.500000000000001,-0.866025403784438));
#539=DIRECTION('',(1.,0.,0.));
#540=DIRECTION('',(0.,-0.500000000000001,0.866025403784438));
#541=DIRECTION('center_axis',(0.,-0.500000000000002,0.866025403784438));
#542=DIRECTION('ref_axis',(0.,-0.866025403784438,-0.500000000000002));
#543=DIRECTION('',(0.,-0.866025403784438,-0.500000000000002));
#544=DIRECTION('',(1.,0.,0.));
#545=DIRECTION('',(0.,0.866025403784438,0.500000000000002));
#546=DIRECTION('center_axis',(0.,0.866025403784439,0.499999999999999));
#547=DIRECTION('ref_axis',(0.,-0.499999999999999,0.866025403784439));
#548=DIRECTION('',(0.,-0.499999999999999,0.866025403784439));
#549=DIRECTION('',(0.,0.499999999999999,-0.866025403784439));
#550=DIRECTION('center_axis',(0.,-0.499999999999992,0.866025403784443));
#551=DIRECTION('ref_axis',(0.,-0.866025403784443,-0.499999999999992));
#552=DIRECTION('',(0.,-0.866025403784443,-0.499999999999992));
#553=DIRECTION('',(1.,0.,0.));
#554=DIRECTION('',(0.,0.866025403784443,0.499999999999992));
#555=DIRECTION('',(1.,0.,0.));
#556=DIRECTION('center_axis',(0.,0.866025403784438,0.500000000000001));
#557=DIRECTION('ref_axis',(0.,-0.500000000000001,0.866025403784438));
#558=DIRECTION('',(0.,-0.500000000000001,0.866025403784438));
#559=DIRECTION('',(1.,0.,0.));
#560=DIRECTION('',(0.,0.500000000000001,-0.866025403784438));
#561=DIRECTION('center_axis',(0.,0.499999999999994,-0.866025403784442));
#562=DIRECTION('ref_axis',(0.,0.866025403784442,0.499999999999994));
#563=DIRECTION('',(0.,0.866025403784442,0.499999999999994));
#564=DIRECTION('',(1.,0.,0.));
#565=DIRECTION('',(0.,-0.866025403784442,-0.499999999999994));
#566=DIRECTION('center_axis',(0.,-0.866025403784439,-0.5));
#567=DIRECTION('ref_axis',(0.,0.5,-0.866025403784439));
#568=DIRECTION('',(0.,0.5,-0.866025403784439));
#569=DIRECTION('',(0.,-0.5,0.866025403784439));
#570=DIRECTION('center_axis',(0.,0.499999999998796,-0.866025403785134));
#571=DIRECTION('ref_axis',(0.,0.866025403785134,0.499999999998796));
#572=DIRECTION('',(0.,-0.866025403785134,-0.499999999998796));
#573=DIRECTION('',(1.,0.,0.));
#574=DIRECTION('',(0.,0.866025403785134,0.499999999998796));
#575=DIRECTION('',(1.,0.,0.));
#576=DIRECTION('center_axis',(1.,0.,0.));
#577=DIRECTION('ref_axis',(0.,-0.866025403784447,-0.499999999999985));
#578=DIRECTION('center_axis',(1.,0.,0.));
#579=DIRECTION('ref_axis',(0.,-0.866025403784447,-0.499999999999985));
#580=DIRECTION('center_axis',(1.,0.,0.));
#581=DIRECTION('ref_axis',(0.,-0.866025403784447,-0.499999999999985));
#582=DIRECTION('',(1.,0.,0.));
#583=DIRECTION('center_axis',(0.,-0.866025403784424,-0.500000000000026));
#584=DIRECTION('ref_axis',(0.,0.500000000000026,-0.866025403784424));
#585=DIRECTION('',(0.,-0.500000000000026,0.866025403784424));
#586=DIRECTION('',(0.,0.500000000000026,-0.866025403784424));
#587=DIRECTION('',(1.,0.,0.));
#588=DIRECTION('',(1.,0.,0.));
#589=DIRECTION('center_axis',(0.,1.,1.33226762955012E-14));
#590=DIRECTION('ref_axis',(0.,-1.33226762955012E-14,1.));
#591=DIRECTION('',(0.,-1.33226762955012E-14,1.));
#592=DIRECTION('',(0.,-1.33226762955012E-14,1.));
#593=DIRECTION('',(1.,0.,0.));
#594=DIRECTION('center_axis',(1.,0.,0.));
#595=DIRECTION('ref_axis',(0.,8.88178419700124E-16,-1.));
#596=DIRECTION('center_axis',(1.,0.,0.));
#597=DIRECTION('ref_axis',(0.,8.88178419700124E-16,-1.));
#598=DIRECTION('center_axis',(1.,0.,0.));
#599=DIRECTION('ref_axis',(0.,8.88178419700124E-16,-1.));
#600=DIRECTION('',(1.,0.,0.));
#601=DIRECTION('center_axis',(0.,0.,-1.));
#602=DIRECTION('ref_axis',(0.,1.,0.));
#603=DIRECTION('',(0.,1.,0.));
#604=DIRECTION('',(0.,1.,0.));
#605=DIRECTION('',(1.,0.,0.));
#606=DIRECTION('center_axis',(1.,0.,0.));
#607=DIRECTION('ref_axis',(0.,-1.,0.));
#608=DIRECTION('center_axis',(1.,0.,0.));
#609=DIRECTION('ref_axis',(0.,-1.,0.));
#610=DIRECTION('center_axis',(1.,0.,0.));
#611=DIRECTION('ref_axis',(0.,-1.,0.));
#612=DIRECTION('',(1.,0.,0.));
#613=DIRECTION('center_axis',(0.,-1.,0.));
#614=DIRECTION('ref_axis',(0.,0.,-1.));
#615=DIRECTION('',(0.,0.,-1.));
#616=DIRECTION('',(0.,0.,-1.));
#617=DIRECTION('',(1.,0.,0.));
#618=DIRECTION('center_axis',(1.,0.,0.));
#619=DIRECTION('ref_axis',(0.,-0.495465908765954,0.868627384584856));
#620=DIRECTION('center_axis',(1.,0.,0.));
#621=DIRECTION('ref_axis',(0.,-0.495465908765954,0.868627384584856));
#622=DIRECTION('center_axis',(1.,0.,0.));
#623=DIRECTION('ref_axis',(0.,-0.495465908765954,0.868627384584856));
#624=DIRECTION('',(1.,0.,0.));
#625=DIRECTION('center_axis',(0.,-0.499999999999999,0.866025403784439));
#626=DIRECTION('ref_axis',(0.,-0.866025403784439,-0.499999999999999));
#627=DIRECTION('',(0.,-0.866025403784439,-0.499999999999999));
#628=DIRECTION('',(0.,-0.866025403784439,-0.499999999999999));
#629=DIRECTION('',(1.,0.,0.));
#630=DIRECTION('center_axis',(1.,0.,0.));
#631=DIRECTION('ref_axis',(0.,0.86602540378444,0.499999999999998));
#632=DIRECTION('center_axis',(1.,0.,0.));
#633=DIRECTION('ref_axis',(0.,0.86602540378444,0.499999999999998));
#634=DIRECTION('center_axis',(1.,0.,0.));
#635=DIRECTION('ref_axis',(0.,0.86602540378444,0.499999999999998));
#636=DIRECTION('',(1.,0.,0.));
#637=DIRECTION('center_axis',(0.,0.866025403784439,0.499999999999999));
#638=DIRECTION('ref_axis',(0.,-0.499999999999999,0.866025403784439));
#639=DIRECTION('',(0.,0.499999999999999,-0.866025403784439));
#640=DIRECTION('',(0.,-0.499999999999999,0.866025403784439));
#641=DIRECTION('',(1.,0.,0.));
#642=DIRECTION('center_axis',(1.,0.,0.));
#643=DIRECTION('ref_axis',(0.,0.499999999999711,-0.866025403784606));
#644=DIRECTION('center_axis',(1.,0.,0.));
#645=DIRECTION('ref_axis',(0.,0.499999999999711,-0.866025403784606));
#646=DIRECTION('center_axis',(1.,0.,0.));
#647=DIRECTION('ref_axis',(0.,0.499999999999711,-0.866025403784606));
#648=DIRECTION('center_axis',(1.,0.,0.));
#649=DIRECTION('ref_axis',(0.,0.,-1.));
#650=DIRECTION('center_axis',(1.,0.,0.));
#651=DIRECTION('ref_axis',(0.,0.,-1.));
#652=CARTESIAN_POINT('',(0.,0.,0.));
#653=CARTESIAN_POINT('Origin',(0.,67.153520028186,-124.313308595912));
#654=CARTESIAN_POINT('',(0.,67.153520028186,-124.313308595912));
#655=CARTESIAN_POINT('',(0.,71.4836470471082,-121.813308595912));
#656=CARTESIAN_POINT('',(0.,76.7165576286271,-118.792086263027));
#657=CARTESIAN_POINT('',(5.,67.153520028186,-124.313308595912));
#658=CARTESIAN_POINT('',(0.,67.153520028186,-124.313308595912));
#659=CARTESIAN_POINT('',(5.,71.4836470471082,-121.813308595912));
#660=CARTESIAN_POINT('',(5.,76.7165576286271,-118.792086263027));
#661=CARTESIAN_POINT('',(0.,71.4836470471082,-121.813308595912));
#662=CARTESIAN_POINT('Origin',(0.,62.153520028186,-115.653054558068));
#663=CARTESIAN_POINT('',(0.,62.153520028186,-115.653054558068));
#664=CARTESIAN_POINT('',(0.,52.703248735505,-99.2847045338349));
#665=CARTESIAN_POINT('',(5.,62.153520028186,-115.653054558068));
#666=CARTESIAN_POINT('',(0.,62.153520028186,-115.653054558068));
#667=CARTESIAN_POINT('',(5.,52.703248735505,-99.2847045338349));
#668=CARTESIAN_POINT('Origin',(0.,66.4836470471082,-113.153054558068));
#669=CARTESIAN_POINT('',(0.,66.4836470471082,-113.153054558068));
#670=CARTESIAN_POINT('',(0.,73.8816211380882,-108.881832225183));
#671=CARTESIAN_POINT('',(5.,66.4836470471082,-113.153054558068));
#672=CARTESIAN_POINT('',(0.,66.4836470471082,-113.153054558068));
#673=CARTESIAN_POINT('',(5.,73.8816211380882,-108.881832225183));
#674=CARTESIAN_POINT('Origin',(0.,71.4836470471082,-121.813308595912));
#675=CARTESIAN_POINT('',(0.,59.5333757544272,-101.114831552757));
#676=CARTESIAN_POINT('',(5.,59.5333757544272,-101.114831552757));
#677=CARTESIAN_POINT('Origin',(0.,16.6160254037844,-26.7798002192098));
#678=CARTESIAN_POINT('',(0.,16.6160254037844,-26.7798002192098));
#679=CARTESIAN_POINT('',(0.,12.2858983848622,-29.2798002192098));
#680=CARTESIAN_POINT('',(0.,24.0139994947646,-22.5085778863246));
#681=CARTESIAN_POINT('',(5.,16.6160254037844,-26.7798002192098));
#682=CARTESIAN_POINT('',(0.,16.6160254037844,-26.7798002192098));
#683=CARTESIAN_POINT('',(5.,12.2858983848622,-29.2798002192098));
#684=CARTESIAN_POINT('',(5.,24.0139994947646,-22.5085778863246));
#685=CARTESIAN_POINT('',(0.,12.2858983848622,-29.2798002192098));
#686=CARTESIAN_POINT('Origin',(0.,21.6160254037845,-35.4400542570542));
#687=CARTESIAN_POINT('',(0.,21.6160254037845,-35.4400542570542));
#688=CARTESIAN_POINT('',(0.,34.5995649327653,-57.928204383328));
#689=CARTESIAN_POINT('',(5.,21.6160254037845,-35.4400542570542));
#690=CARTESIAN_POINT('',(0.,21.6160254037845,-35.4400542570542));
#691=CARTESIAN_POINT('',(5.,34.5995649327653,-57.928204383328));
#692=CARTESIAN_POINT('Origin',(0.,17.2858983848622,-37.9400542570542));
#693=CARTESIAN_POINT('',(0.,17.2858983848622,-37.9400542570542));
#694=CARTESIAN_POINT('',(0.,26.8489359853034,-32.4188319241691));
#695=CARTESIAN_POINT('',(5.,17.2858983848622,-37.9400542570542));
#696=CARTESIAN_POINT('',(0.,17.2858983848622,-37.9400542570542));
#697=CARTESIAN_POINT('',(5.,26.8489359853034,-32.4188319241691));
#698=CARTESIAN_POINT('Origin',(0.,12.2858983848622,-29.2798002192098));
#699=CARTESIAN_POINT('',(0.,27.7694379138431,-56.0980773644058));
#700=CARTESIAN_POINT('',(5.,27.7694379138431,-56.0980773644058));
#701=CARTESIAN_POINT('Origin',(0.,83.286962117094,-154.258479767818));
#702=CARTESIAN_POINT('',(0.,122.25810528741,-131.758479767838));
#703=CARTESIAN_POINT('',(0.,83.286962117094,-154.258479767818));
#704=CARTESIAN_POINT('',(0.,97.1433685776643,-146.258479767833));
#705=CARTESIAN_POINT('',(5.,122.25810528741,-131.758479767838));
#706=CARTESIAN_POINT('',(0.,122.25810528741,-131.758479767838));
#707=CARTESIAN_POINT('',(5.,83.286962117094,-154.258479767818));
#708=CARTESIAN_POINT('',(5.,97.1433685776643,-146.258479767833));
#709=CARTESIAN_POINT('',(0.,83.286962117094,-154.258479767818));
#710=CARTESIAN_POINT('Origin',(0.,80.7869621171,-149.928352748893));
#711=CARTESIAN_POINT('',(0.,76.4568350981777,-152.428352748893));
#712=CARTESIAN_POINT('Origin',(0.,80.7869621171,-149.928352748893));
#713=CARTESIAN_POINT('',(5.,76.4568350981777,-152.428352748893));
#714=CARTESIAN_POINT('Origin',(5.,80.7869621171,-149.928352748893));
#715=CARTESIAN_POINT('',(0.,76.4568350981777,-152.428352748893));
#716=CARTESIAN_POINT('Origin',(0.,73.9568350981741,-148.098225729964));
#717=CARTESIAN_POINT('',(0.,73.9568350981741,-148.098225729964));
#718=CARTESIAN_POINT('',(0.,76.4568350981777,-152.428352748893));
#719=CARTESIAN_POINT('',(5.,73.9568350981741,-148.098225729964));
#720=CARTESIAN_POINT('',(5.,76.4568350981777,-152.428352748893));
#721=CARTESIAN_POINT('',(0.,73.9568350981741,-148.098225729964));
#722=CARTESIAN_POINT('Ctrl Pts',(0.,30.,-153.236236000043));
#723=CARTESIAN_POINT('Ctrl Pts',(5.,30.,-153.236236000043));
#724=CARTESIAN_POINT('Ctrl Pts',(0.,30.,-71.9627539999989));
#725=CARTESIAN_POINT('Ctrl Pts',(5.,30.,-71.9627539999989));
#726=CARTESIAN_POINT('Ctrl Pts',(0.,73.9568350981741,-148.098225729964));
#727=CARTESIAN_POINT('Ctrl Pts',(5.,73.9568350981741,-148.098225729964));
#728=CARTESIAN_POINT('',(0.,30.,-153.236236000043));
#729=CARTESIAN_POINT('Ctrl Pts',(0.,73.9568350981741,-148.098225729964));
#730=CARTESIAN_POINT('Ctrl Pts',(0.,30.,-71.9627539999989));
#731=CARTESIAN_POINT('Ctrl Pts',(0.,30.,-153.236236000043));
#732=CARTESIAN_POINT('',(5.,30.,-153.236236000043));
#733=CARTESIAN_POINT('Ctrl Pts',(5.,30.,-153.236236000043));
#734=CARTESIAN_POINT('Ctrl Pts',(5.,30.,-71.9627539999989));
#735=CARTESIAN_POINT('Ctrl Pts',(5.,73.9568350981741,-148.098225729964));
#736=CARTESIAN_POINT('',(0.,30.,-153.236236000043));
#737=CARTESIAN_POINT('Origin',(0.,30.,-154.236236000043));
#738=CARTESIAN_POINT('',(0.,30.,-154.236236000043));
#739=CARTESIAN_POINT('',(0.,30.,-154.236236000043));
#740=CARTESIAN_POINT('',(5.,30.,-154.236236000043));
#741=CARTESIAN_POINT('',(5.,30.,-154.236236000043));
#742=CARTESIAN_POINT('',(0.,30.,-154.236236000043));
#743=CARTESIAN_POINT('Origin',(0.,20.,-154.236236000043));
#744=CARTESIAN_POINT('',(0.,20.,-164.236236000043));
#745=CARTESIAN_POINT('Origin',(0.,20.,-154.236236000043));
#746=CARTESIAN_POINT('',(5.,20.,-164.236236000043));
#747=CARTESIAN_POINT('Origin',(5.,20.,-154.236236000043));
#748=CARTESIAN_POINT('',(0.,20.,-164.236236000043));
#749=CARTESIAN_POINT('Origin',(0.,10.,-164.236236000043));
#750=CARTESIAN_POINT('',(0.,10.,-164.236236000043));
#751=CARTESIAN_POINT('',(0.,10.,-164.236236000043));
#752=CARTESIAN_POINT('',(5.,10.,-164.236236000043));
#753=CARTESIAN_POINT('',(5.,10.,-164.236236000043));
#754=CARTESIAN_POINT('',(0.,10.,-164.236236000043));
#755=CARTESIAN_POINT('Origin',(0.,10.,-154.236236000043));
#756=CARTESIAN_POINT('',(0.,0.,-154.236236000043));
#757=CARTESIAN_POINT('Origin',(0.,10.,-154.236236000043));
#758=CARTESIAN_POINT('',(5.,0.,-154.236236000043));
#759=CARTESIAN_POINT('Origin',(5.,10.,-154.236236000043));
#760=CARTESIAN_POINT('',(0.,0.,-154.236236000043));
#761=CARTESIAN_POINT('Origin',(0.,0.,-5.80840646044309));
#762=CARTESIAN_POINT('',(0.,1.11022302462516E-15,-5.80840646044309));
#763=CARTESIAN_POINT('',(0.,0.,-5.80840646044309));
#764=CARTESIAN_POINT('',(5.,0.,-5.80840646044308));
#765=CARTESIAN_POINT('',(5.,0.,-5.80840646044309));
#766=CARTESIAN_POINT('',(0.,1.11022302462516E-15,-5.80840646044309));
#767=CARTESIAN_POINT('Origin',(0.,10.,-5.80840646044309));
#768=CARTESIAN_POINT('',(0.,3.35788399563296,1.66703967905462));
#769=CARTESIAN_POINT('Origin',(0.,10.,-5.80840646044309));
#770=CARTESIAN_POINT('',(5.,3.35788399563295,1.66703967905462));
#771=CARTESIAN_POINT('Origin',(5.,10.,-5.80840646044309));
#772=CARTESIAN_POINT('',(0.,3.35788399563296,1.66703967905462));
#773=CARTESIAN_POINT('Origin',(0.,35.1997121236839,20.0509277202745));
#774=CARTESIAN_POINT('',(0.,35.1997121236839,20.0509277202745));
#775=CARTESIAN_POINT('',(0.,60.0955210420771,34.4245297010023));
#776=CARTESIAN_POINT('',(5.,35.1997121236839,20.0509277202745));
#777=CARTESIAN_POINT('',(5.,60.0955210420771,34.4245297010023));
#778=CARTESIAN_POINT('',(0.,35.1997121236839,20.0509277202745));
#779=CARTESIAN_POINT('Origin',(0.,37.2450701981623,15.4884163123802));
#780=CARTESIAN_POINT('',(0.,41.5751972170845,17.9884163123802));
#781=CARTESIAN_POINT('Origin',(0.,37.2450701981623,15.4884163123802));
#782=CARTESIAN_POINT('',(5.,41.5751972170845,17.9884163123802));
#783=CARTESIAN_POINT('Origin',(5.,37.2450701981623,15.4884163123802));
#784=CARTESIAN_POINT('',(0.,41.5751972170845,17.9884163123802));
#785=CARTESIAN_POINT('Origin',(0.,124.088232306334,-124.928352748914));
#786=CARTESIAN_POINT('',(0.,124.088232306334,-124.928352748914));
#787=CARTESIAN_POINT('',(0.,41.5751972170845,17.9884163123802));
#788=CARTESIAN_POINT('',(5.,124.088232306334,-124.928352748914));
#789=CARTESIAN_POINT('',(5.,41.5751972170845,17.9884163123802));
#790=CARTESIAN_POINT('',(0.,124.088232306334,-124.928352748914));
#791=CARTESIAN_POINT('Origin',(0.,119.758105287411,-127.428352748914));
#792=CARTESIAN_POINT('Origin',(0.,119.758105287411,-127.428352748914));
#793=CARTESIAN_POINT('Origin',(5.,119.758105287411,-127.428352748914));
#794=CARTESIAN_POINT('Origin',(5.,62.379052643706,-71.8739098438315));
#795=CARTESIAN_POINT('Origin',(0.,62.379052643706,-71.8739098438315));
#796=UNCERTAINTY_MEASURE_WITH_UNIT(LENGTH_MEASURE(0.01),#800,
'DISTANCE_ACCURACY_VALUE',
'Maximum model space distance between geometric entities at asserted c
onnectivities');
#797=UNCERTAINTY_MEASURE_WITH_UNIT(LENGTH_MEASURE(0.01),#800,
'DISTANCE_ACCURACY_VALUE',
'Maximum model space distance between geometric entities at asserted c
onnectivities');
#798=(
GEOMETRIC_REPRESENTATION_CONTEXT(3)
GLOBAL_UNCERTAINTY_ASSIGNED_CONTEXT((#796))
GLOBAL_UNIT_ASSIGNED_CONTEXT((#800,#802,#803))
REPRESENTATION_CONTEXT('','3D')
);
#799=(
GEOMETRIC_REPRESENTATION_CONTEXT(3)
GLOBAL_UNCERTAINTY_ASSIGNED_CONTEXT((#797))
GLOBAL_UNIT_ASSIGNED_CONTEXT((#800,#802,#803))
REPRESENTATION_CONTEXT('','3D')
);
#800=(
LENGTH_UNIT()
NAMED_UNIT(*)
SI_UNIT(.MILLI.,.METRE.)
);
#801=(
LENGTH_UNIT()
NAMED_UNIT(*)
SI_UNIT($,.METRE.)
);
#802=(
NAMED_UNIT(*)
PLANE_ANGLE_UNIT()
SI_UNIT($,.RADIAN.)
);
#803=(
NAMED_UNIT(*)
SI_UNIT($,.STERADIAN.)
SOLID_ANGLE_UNIT()
);
#804=SHAPE_DEFINITION_REPRESENTATION(#805,#806);
#805=PRODUCT_DEFINITION_SHAPE('',$,#808);
#806=SHAPE_REPRESENTATION('',(#492),#798);
#807=PRODUCT_DEFINITION_CONTEXT('part definition',#812,'design');
#808=PRODUCT_DEFINITION('2026-09-01-21-04-22-824','ES-30 LIVE',#809,#807);
#809=PRODUCT_DEFINITION_FORMATION('',$,#814);
#810=PRODUCT_RELATED_PRODUCT_CATEGORY('ES-30 LIVE','ES-30 LIVE',(#814));
#811=APPLICATION_PROTOCOL_DEFINITION('international standard',
'automotive_design',2009,#812);
#812=APPLICATION_CONTEXT(
'Core Data for Automotive Mechanical Design Process');
#813=PRODUCT_CONTEXT('part definition',#812,'mechanical');
#814=PRODUCT('2026-09-01-21-04-22-824','ES-30 LIVE',$,(#813));
#815=PRESENTATION_STYLE_ASSIGNMENT((#816));
#816=SURFACE_STYLE_USAGE(.BOTH.,#817);
#817=SURFACE_SIDE_STYLE('',(#818));
#818=SURFACE_STYLE_FILL_AREA(#819);
#819=FILL_AREA_STYLE('Oak',(#820));
#820=FILL_AREA_STYLE_COLOUR('Oak',#821);
#821=COLOUR_RGB('Oak',0.,0.,0.);
ENDSEC;
END-ISO-10303-21;
