ISO-10303-21;
HEADER;
/* Generated by software containing ST-Developer
 * from STEP Tools, Inc. (www.steptools.com) 
 */

FILE_DESCRIPTION(
/* description */ (''),
/* implementation_level */ '2;1');

FILE_NAME(
/* name */ 'ES-30 connector.step',
/* time_stamp */ '2026-09-01T21:10:50+02:00',
/* author */ (''),
/* organization */ (''),
/* preprocessor_version */ 'ST-DEVELOPER v20.1',
/* originating_system */ 'Autodesk Translation Framework v15.8.0.0',
/* authorisation */ '');

FILE_SCHEMA (('AUTOMOTIVE_DESIGN { 1 0 10303 214 3 1 1 }'));
ENDSEC;

DATA;
#10=MECHANICAL_DESIGN_GEOMETRIC_PRESENTATION_REPRESENTATION('',(#13),#797);
#11=SHAPE_REPRESENTATION_RELATIONSHIP('SRR','None',#804,#12);
#12=ADVANCED_BREP_SHAPE_REPRESENTATION('',(#14),#796);
#13=STYLED_ITEM('',(#814),#14);
#14=MANIFOLD_SOLID_BREP('Body1',#497);
#15=FACE_BOUND('',#92,.T.);
#16=FACE_BOUND('',#93,.T.);
#17=FACE_BOUND('',#94,.T.);
#18=FACE_BOUND('',#95,.T.);
#19=FACE_BOUND('',#97,.T.);
#20=FACE_BOUND('',#98,.T.);
#21=FACE_BOUND('',#99,.T.);
#22=FACE_BOUND('',#100,.T.);
#23=PLANE('',#517);
#24=PLANE('',#518);
#25=PLANE('',#519);
#26=PLANE('',#520);
#27=PLANE('',#521);
#28=PLANE('',#522);
#29=PLANE('',#523);
#30=PLANE('',#524);
#31=PLANE('',#525);
#32=PLANE('',#526);
#33=PLANE('',#527);
#34=PLANE('',#528);
#35=PLANE('',#529);
#36=PLANE('',#530);
#37=PLANE('',#531);
#38=PLANE('',#532);
#39=PLANE('',#533);
#40=PLANE('',#534);
#41=PLANE('',#535);
#42=PLANE('',#536);
#43=PLANE('',#537);
#44=PLANE('',#538);
#45=FACE_OUTER_BOUND('',#69,.T.);
#46=FACE_OUTER_BOUND('',#70,.T.);
#47=FACE_OUTER_BOUND('',#71,.T.);
#48=FACE_OUTER_BOUND('',#72,.T.);
#49=FACE_OUTER_BOUND('',#73,.T.);
#50=FACE_OUTER_BOUND('',#74,.T.);
#51=FACE_OUTER_BOUND('',#75,.T.);
#52=FACE_OUTER_BOUND('',#76,.T.);
#53=FACE_OUTER_BOUND('',#77,.T.);
#54=FACE_OUTER_BOUND('',#78,.T.);
#55=FACE_OUTER_BOUND('',#79,.T.);
#56=FACE_OUTER_BOUND('',#80,.T.);
#57=FACE_OUTER_BOUND('',#81,.T.);
#58=FACE_OUTER_BOUND('',#82,.T.);
#59=FACE_OUTER_BOUND('',#83,.T.);
#60=FACE_OUTER_BOUND('',#84,.T.);
#61=FACE_OUTER_BOUND('',#85,.T.);
#62=FACE_OUTER_BOUND('',#86,.T.);
#63=FACE_OUTER_BOUND('',#87,.T.);
#64=FACE_OUTER_BOUND('',#88,.T.);
#65=FACE_OUTER_BOUND('',#89,.T.);
#66=FACE_OUTER_BOUND('',#90,.T.);
#67=FACE_OUTER_BOUND('',#91,.T.);
#68=FACE_OUTER_BOUND('',#96,.T.);
#69=EDGE_LOOP('',(#339,#340,#341,#342));
#70=EDGE_LOOP('',(#343,#344,#345,#346));
#71=EDGE_LOOP('',(#347,#348,#349,#350));
#72=EDGE_LOOP('',(#351,#352,#353,#354));
#73=EDGE_LOOP('',(#355,#356,#357,#358));
#74=EDGE_LOOP('',(#359,#360,#361,#362));
#75=EDGE_LOOP('',(#363,#364,#365,#366));
#76=EDGE_LOOP('',(#367,#368,#369,#370));
#77=EDGE_LOOP('',(#371,#372,#373,#374));
#78=EDGE_LOOP('',(#375,#376,#377,#378));
#79=EDGE_LOOP('',(#379,#380,#381,#382));
#80=EDGE_LOOP('',(#383,#384,#385,#386));
#81=EDGE_LOOP('',(#387,#388,#389,#390));
#82=EDGE_LOOP('',(#391,#392,#393,#394));
#83=EDGE_LOOP('',(#395,#396,#397,#398));
#84=EDGE_LOOP('',(#399,#400,#401,#402));
#85=EDGE_LOOP('',(#403,#404,#405,#406));
#86=EDGE_LOOP('',(#407,#408,#409,#410));
#87=EDGE_LOOP('',(#411,#412,#413,#414));
#88=EDGE_LOOP('',(#415,#416,#417,#418));
#89=EDGE_LOOP('',(#419,#420,#421,#422));
#90=EDGE_LOOP('',(#423,#424,#425,#426));
#91=EDGE_LOOP('',(#427,#428,#429,#430,#431,#432,#433,#434,#435,#436,#437,
#438));
#92=EDGE_LOOP('',(#439));
#93=EDGE_LOOP('',(#440));
#94=EDGE_LOOP('',(#441,#442,#443,#444));
#95=EDGE_LOOP('',(#445,#446,#447,#448));
#96=EDGE_LOOP('',(#449,#450,#451,#452,#453,#454,#455,#456,#457,#458,#459,
#460));
#97=EDGE_LOOP('',(#461));
#98=EDGE_LOOP('',(#462));
#99=EDGE_LOOP('',(#463,#464,#465,#466));
#100=EDGE_LOOP('',(#467,#468,#469,#470));
#101=LINE('',#664,#163);
#102=LINE('',#670,#164);
#103=LINE('',#675,#165);
#104=LINE('',#677,#166);
#105=LINE('',#679,#167);
#106=LINE('',#680,#168);
#107=LINE('',#683,#169);
#108=LINE('',#685,#170);
#109=LINE('',#686,#171);
#110=LINE('',#689,#172);
#111=LINE('',#691,#173);
#112=LINE('',#692,#174);
#113=LINE('',#694,#175);
#114=LINE('',#695,#176);
#115=LINE('',#699,#177);
#116=LINE('',#701,#178);
#117=LINE('',#703,#179);
#118=LINE('',#704,#180);
#119=LINE('',#707,#181);
#120=LINE('',#709,#182);
#121=LINE('',#710,#183);
#122=LINE('',#713,#184);
#123=LINE('',#715,#185);
#124=LINE('',#716,#186);
#125=LINE('',#718,#187);
#126=LINE('',#719,#188);
#127=LINE('',#723,#189);
#128=LINE('',#725,#190);
#129=LINE('',#727,#191);
#130=LINE('',#728,#192);
#131=LINE('',#731,#193);
#132=LINE('',#733,#194);
#133=LINE('',#734,#195);
#134=LINE('',#737,#196);
#135=LINE('',#739,#197);
#136=LINE('',#740,#198);
#137=LINE('',#743,#199);
#138=LINE('',#745,#200);
#139=LINE('',#746,#201);
#140=LINE('',#749,#202);
#141=LINE('',#751,#203);
#142=LINE('',#752,#204);
#143=LINE('',#755,#205);
#144=LINE('',#757,#206);
#145=LINE('',#758,#207);
#146=LINE('',#761,#208);
#147=LINE('',#763,#209);
#148=LINE('',#764,#210);
#149=LINE('',#767,#211);
#150=LINE('',#769,#212);
#151=LINE('',#770,#213);
#152=LINE('',#773,#214);
#153=LINE('',#775,#215);
#154=LINE('',#776,#216);
#155=LINE('',#779,#217);
#156=LINE('',#781,#218);
#157=LINE('',#782,#219);
#158=LINE('',#785,#220);
#159=LINE('',#787,#221);
#160=LINE('',#788,#222);
#161=LINE('',#790,#223);
#162=LINE('',#791,#224);
#163=VECTOR('',#545,2.15);
#164=VECTOR('',#552,2.15);
#165=VECTOR('',#557,10.);
#166=VECTOR('',#558,10.);
#167=VECTOR('',#559,10.);
#168=VECTOR('',#560,10.);
#169=VECTOR('',#563,10.);
#170=VECTOR('',#564,10.);
#171=VECTOR('',#565,10.);
#172=VECTOR('',#568,10.);
#173=VECTOR('',#569,10.);
#174=VECTOR('',#570,10.);
#175=VECTOR('',#573,10.);
#176=VECTOR('',#574,10.);
#177=VECTOR('',#577,10.);
#178=VECTOR('',#578,10.);
#179=VECTOR('',#579,10.);
#180=VECTOR('',#580,10.);
#181=VECTOR('',#583,10.);
#182=VECTOR('',#584,10.);
#183=VECTOR('',#585,10.);
#184=VECTOR('',#588,10.);
#185=VECTOR('',#589,10.);
#186=VECTOR('',#590,10.);
#187=VECTOR('',#593,10.);
#188=VECTOR('',#594,10.);
#189=VECTOR('',#597,10.);
#190=VECTOR('',#598,10.);
#191=VECTOR('',#599,10.);
#192=VECTOR('',#600,10.);
#193=VECTOR('',#603,10.);
#194=VECTOR('',#604,10.);
#195=VECTOR('',#605,10.);
#196=VECTOR('',#608,10.);
#197=VECTOR('',#609,10.);
#198=VECTOR('',#610,10.);
#199=VECTOR('',#613,10.);
#200=VECTOR('',#614,10.);
#201=VECTOR('',#615,10.);
#202=VECTOR('',#618,10.);
#203=VECTOR('',#619,10.);
#204=VECTOR('',#620,10.);
#205=VECTOR('',#623,10.);
#206=VECTOR('',#624,10.);
#207=VECTOR('',#625,10.);
#208=VECTOR('',#628,10.);
#209=VECTOR('',#629,10.);
#210=VECTOR('',#630,10.);
#211=VECTOR('',#633,10.);
#212=VECTOR('',#634,10.);
#213=VECTOR('',#635,10.);
#214=VECTOR('',#638,10.);
#215=VECTOR('',#639,10.);
#216=VECTOR('',#640,10.);
#217=VECTOR('',#643,10.);
#218=VECTOR('',#644,10.);
#219=VECTOR('',#645,10.);
#220=VECTOR('',#648,10.);
#221=VECTOR('',#649,10.);
#222=VECTOR('',#650,10.);
#223=VECTOR('',#653,10.);
#224=VECTOR('',#654,10.);
#225=CIRCLE('',#512,2.15);
#226=CIRCLE('',#513,2.15);
#227=CIRCLE('',#515,2.15);
#228=CIRCLE('',#516,2.15);
#229=VERTEX_POINT('',#661);
#230=VERTEX_POINT('',#663);
#231=VERTEX_POINT('',#667);
#232=VERTEX_POINT('',#669);
#233=VERTEX_POINT('',#673);
#234=VERTEX_POINT('',#674);
#235=VERTEX_POINT('',#676);
#236=VERTEX_POINT('',#678);
#237=VERTEX_POINT('',#682);
#238=VERTEX_POINT('',#684);
#239=VERTEX_POINT('',#688);
#240=VERTEX_POINT('',#690);
#241=VERTEX_POINT('',#697);
#242=VERTEX_POINT('',#698);
#243=VERTEX_POINT('',#700);
#244=VERTEX_POINT('',#702);
#245=VERTEX_POINT('',#706);
#246=VERTEX_POINT('',#708);
#247=VERTEX_POINT('',#712);
#248=VERTEX_POINT('',#714);
#249=VERTEX_POINT('',#721);
#250=VERTEX_POINT('',#722);
#251=VERTEX_POINT('',#724);
#252=VERTEX_POINT('',#726);
#253=VERTEX_POINT('',#730);
#254=VERTEX_POINT('',#732);
#255=VERTEX_POINT('',#736);
#256=VERTEX_POINT('',#738);
#257=VERTEX_POINT('',#742);
#258=VERTEX_POINT('',#744);
#259=VERTEX_POINT('',#748);
#260=VERTEX_POINT('',#750);
#261=VERTEX_POINT('',#754);
#262=VERTEX_POINT('',#756);
#263=VERTEX_POINT('',#760);
#264=VERTEX_POINT('',#762);
#265=VERTEX_POINT('',#766);
#266=VERTEX_POINT('',#768);
#267=VERTEX_POINT('',#772);
#268=VERTEX_POINT('',#774);
#269=VERTEX_POINT('',#778);
#270=VERTEX_POINT('',#780);
#271=VERTEX_POINT('',#784);
#272=VERTEX_POINT('',#786);
#273=EDGE_CURVE('',#229,#229,#225,.T.);
#274=EDGE_CURVE('',#229,#230,#101,.T.);
#275=EDGE_CURVE('',#230,#230,#226,.T.);
#276=EDGE_CURVE('',#231,#231,#227,.T.);
#277=EDGE_CURVE('',#231,#232,#102,.T.);
#278=EDGE_CURVE('',#232,#232,#228,.T.);
#279=EDGE_CURVE('',#233,#234,#103,.T.);
#280=EDGE_CURVE('',#235,#233,#104,.T.);
#281=EDGE_CURVE('',#236,#235,#105,.T.);
#282=EDGE_CURVE('',#236,#234,#106,.T.);
#283=EDGE_CURVE('',#234,#237,#107,.T.);
#284=EDGE_CURVE('',#238,#236,#108,.T.);
#285=EDGE_CURVE('',#238,#237,#109,.T.);
#286=EDGE_CURVE('',#237,#239,#110,.T.);
#287=EDGE_CURVE('',#240,#238,#111,.T.);
#288=EDGE_CURVE('',#240,#239,#112,.T.);
#289=EDGE_CURVE('',#239,#233,#113,.T.);
#290=EDGE_CURVE('',#235,#240,#114,.T.);
#291=EDGE_CURVE('',#241,#242,#115,.T.);
#292=EDGE_CURVE('',#243,#241,#116,.T.);
#293=EDGE_CURVE('',#244,#243,#117,.T.);
#294=EDGE_CURVE('',#244,#242,#118,.T.);
#295=EDGE_CURVE('',#242,#245,#119,.T.);
#296=EDGE_CURVE('',#246,#244,#120,.T.);
#297=EDGE_CURVE('',#246,#245,#121,.T.);
#298=EDGE_CURVE('',#245,#247,#122,.T.);
#299=EDGE_CURVE('',#248,#246,#123,.T.);
#300=EDGE_CURVE('',#248,#247,#124,.T.);
#301=EDGE_CURVE('',#247,#241,#125,.T.);
#302=EDGE_CURVE('',#243,#248,#126,.T.);
#303=EDGE_CURVE('',#249,#250,#127,.T.);
#304=EDGE_CURVE('',#249,#251,#128,.T.);
#305=EDGE_CURVE('',#252,#251,#129,.T.);
#306=EDGE_CURVE('',#250,#252,#130,.T.);
#307=EDGE_CURVE('',#250,#253,#131,.T.);
#308=EDGE_CURVE('',#254,#252,#132,.T.);
#309=EDGE_CURVE('',#253,#254,#133,.T.);
#310=EDGE_CURVE('',#253,#255,#134,.T.);
#311=EDGE_CURVE('',#256,#254,#135,.T.);
#312=EDGE_CURVE('',#255,#256,#136,.T.);
#313=EDGE_CURVE('',#255,#257,#137,.T.);
#314=EDGE_CURVE('',#258,#256,#138,.T.);
#315=EDGE_CURVE('',#257,#258,#139,.T.);
#316=EDGE_CURVE('',#257,#259,#140,.T.);
#317=EDGE_CURVE('',#260,#258,#141,.T.);
#318=EDGE_CURVE('',#259,#260,#142,.T.);
#319=EDGE_CURVE('',#259,#261,#143,.T.);
#320=EDGE_CURVE('',#262,#260,#144,.T.);
#321=EDGE_CURVE('',#261,#262,#145,.T.);
#322=EDGE_CURVE('',#261,#263,#146,.T.);
#323=EDGE_CURVE('',#264,#262,#147,.T.);
#324=EDGE_CURVE('',#263,#264,#148,.T.);
#325=EDGE_CURVE('',#263,#265,#149,.T.);
#326=EDGE_CURVE('',#266,#264,#150,.T.);
#327=EDGE_CURVE('',#265,#266,#151,.T.);
#328=EDGE_CURVE('',#265,#267,#152,.T.);
#329=EDGE_CURVE('',#268,#266,#153,.T.);
#330=EDGE_CURVE('',#267,#268,#154,.T.);
#331=EDGE_CURVE('',#267,#269,#155,.T.);
#332=EDGE_CURVE('',#270,#268,#156,.T.);
#333=EDGE_CURVE('',#269,#270,#157,.T.);
#334=EDGE_CURVE('',#269,#271,#158,.T.);
#335=EDGE_CURVE('',#272,#270,#159,.T.);
#336=EDGE_CURVE('',#271,#272,#160,.T.);
#337=EDGE_CURVE('',#271,#249,#161,.T.);
#338=EDGE_CURVE('',#251,#272,#162,.T.);
#339=ORIENTED_EDGE('',*,*,#273,.F.);
#340=ORIENTED_EDGE('',*,*,#274,.T.);
#341=ORIENTED_EDGE('',*,*,#275,.F.);
#342=ORIENTED_EDGE('',*,*,#274,.F.);
#343=ORIENTED_EDGE('',*,*,#276,.F.);
#344=ORIENTED_EDGE('',*,*,#277,.T.);
#345=ORIENTED_EDGE('',*,*,#278,.F.);
#346=ORIENTED_EDGE('',*,*,#277,.F.);
#347=ORIENTED_EDGE('',*,*,#279,.F.);
#348=ORIENTED_EDGE('',*,*,#280,.F.);
#349=ORIENTED_EDGE('',*,*,#281,.F.);
#350=ORIENTED_EDGE('',*,*,#282,.T.);
#351=ORIENTED_EDGE('',*,*,#283,.F.);
#352=ORIENTED_EDGE('',*,*,#282,.F.);
#353=ORIENTED_EDGE('',*,*,#284,.F.);
#354=ORIENTED_EDGE('',*,*,#285,.T.);
#355=ORIENTED_EDGE('',*,*,#286,.F.);
#356=ORIENTED_EDGE('',*,*,#285,.F.);
#357=ORIENTED_EDGE('',*,*,#287,.F.);
#358=ORIENTED_EDGE('',*,*,#288,.T.);
#359=ORIENTED_EDGE('',*,*,#289,.F.);
#360=ORIENTED_EDGE('',*,*,#288,.F.);
#361=ORIENTED_EDGE('',*,*,#290,.F.);
#362=ORIENTED_EDGE('',*,*,#280,.T.);
#363=ORIENTED_EDGE('',*,*,#291,.F.);
#364=ORIENTED_EDGE('',*,*,#292,.F.);
#365=ORIENTED_EDGE('',*,*,#293,.F.);
#366=ORIENTED_EDGE('',*,*,#294,.T.);
#367=ORIENTED_EDGE('',*,*,#295,.F.);
#368=ORIENTED_EDGE('',*,*,#294,.F.);
#369=ORIENTED_EDGE('',*,*,#296,.F.);
#370=ORIENTED_EDGE('',*,*,#297,.T.);
#371=ORIENTED_EDGE('',*,*,#298,.F.);
#372=ORIENTED_EDGE('',*,*,#297,.F.);
#373=ORIENTED_EDGE('',*,*,#299,.F.);
#374=ORIENTED_EDGE('',*,*,#300,.T.);
#375=ORIENTED_EDGE('',*,*,#301,.F.);
#376=ORIENTED_EDGE('',*,*,#300,.F.);
#377=ORIENTED_EDGE('',*,*,#302,.F.);
#378=ORIENTED_EDGE('',*,*,#292,.T.);
#379=ORIENTED_EDGE('',*,*,#303,.F.);
#380=ORIENTED_EDGE('',*,*,#304,.T.);
#381=ORIENTED_EDGE('',*,*,#305,.F.);
#382=ORIENTED_EDGE('',*,*,#306,.F.);
#383=ORIENTED_EDGE('',*,*,#307,.F.);
#384=ORIENTED_EDGE('',*,*,#306,.T.);
#385=ORIENTED_EDGE('',*,*,#308,.F.);
#386=ORIENTED_EDGE('',*,*,#309,.F.);
#387=ORIENTED_EDGE('',*,*,#310,.F.);
#388=ORIENTED_EDGE('',*,*,#309,.T.);
#389=ORIENTED_EDGE('',*,*,#311,.F.);
#390=ORIENTED_EDGE('',*,*,#312,.F.);
#391=ORIENTED_EDGE('',*,*,#313,.F.);
#392=ORIENTED_EDGE('',*,*,#312,.T.);
#393=ORIENTED_EDGE('',*,*,#314,.F.);
#394=ORIENTED_EDGE('',*,*,#315,.F.);
#395=ORIENTED_EDGE('',*,*,#316,.F.);
#396=ORIENTED_EDGE('',*,*,#315,.T.);
#397=ORIENTED_EDGE('',*,*,#317,.F.);
#398=ORIENTED_EDGE('',*,*,#318,.F.);
#399=ORIENTED_EDGE('',*,*,#319,.F.);
#400=ORIENTED_EDGE('',*,*,#318,.T.);
#401=ORIENTED_EDGE('',*,*,#320,.F.);
#402=ORIENTED_EDGE('',*,*,#321,.F.);
#403=ORIENTED_EDGE('',*,*,#322,.F.);
#404=ORIENTED_EDGE('',*,*,#321,.T.);
#405=ORIENTED_EDGE('',*,*,#323,.F.);
#406=ORIENTED_EDGE('',*,*,#324,.F.);
#407=ORIENTED_EDGE('',*,*,#325,.F.);
#408=ORIENTED_EDGE('',*,*,#324,.T.);
#409=ORIENTED_EDGE('',*,*,#326,.F.);
#410=ORIENTED_EDGE('',*,*,#327,.F.);
#411=ORIENTED_EDGE('',*,*,#328,.F.);
#412=ORIENTED_EDGE('',*,*,#327,.T.);
#413=ORIENTED_EDGE('',*,*,#329,.F.);
#414=ORIENTED_EDGE('',*,*,#330,.F.);
#415=ORIENTED_EDGE('',*,*,#331,.F.);
#416=ORIENTED_EDGE('',*,*,#330,.T.);
#417=ORIENTED_EDGE('',*,*,#332,.F.);
#418=ORIENTED_EDGE('',*,*,#333,.F.);
#419=ORIENTED_EDGE('',*,*,#334,.F.);
#420=ORIENTED_EDGE('',*,*,#333,.T.);
#421=ORIENTED_EDGE('',*,*,#335,.F.);
#422=ORIENTED_EDGE('',*,*,#336,.F.);
#423=ORIENTED_EDGE('',*,*,#337,.F.);
#424=ORIENTED_EDGE('',*,*,#336,.T.);
#425=ORIENTED_EDGE('',*,*,#338,.F.);
#426=ORIENTED_EDGE('',*,*,#304,.F.);
#427=ORIENTED_EDGE('',*,*,#338,.T.);
#428=ORIENTED_EDGE('',*,*,#335,.T.);
#429=ORIENTED_EDGE('',*,*,#332,.T.);
#430=ORIENTED_EDGE('',*,*,#329,.T.);
#431=ORIENTED_EDGE('',*,*,#326,.T.);
#432=ORIENTED_EDGE('',*,*,#323,.T.);
#433=ORIENTED_EDGE('',*,*,#320,.T.);
#434=ORIENTED_EDGE('',*,*,#317,.T.);
#435=ORIENTED_EDGE('',*,*,#314,.T.);
#436=ORIENTED_EDGE('',*,*,#311,.T.);
#437=ORIENTED_EDGE('',*,*,#308,.T.);
#438=ORIENTED_EDGE('',*,*,#305,.T.);
#439=ORIENTED_EDGE('',*,*,#273,.T.);
#440=ORIENTED_EDGE('',*,*,#276,.T.);
#441=ORIENTED_EDGE('',*,*,#281,.T.);
#442=ORIENTED_EDGE('',*,*,#290,.T.);
#443=ORIENTED_EDGE('',*,*,#287,.T.);
#444=ORIENTED_EDGE('',*,*,#284,.T.);
#445=ORIENTED_EDGE('',*,*,#293,.T.);
#446=ORIENTED_EDGE('',*,*,#302,.T.);
#447=ORIENTED_EDGE('',*,*,#299,.T.);
#448=ORIENTED_EDGE('',*,*,#296,.T.);
#449=ORIENTED_EDGE('',*,*,#337,.T.);
#450=ORIENTED_EDGE('',*,*,#303,.T.);
#451=ORIENTED_EDGE('',*,*,#307,.T.);
#452=ORIENTED_EDGE('',*,*,#310,.T.);
#453=ORIENTED_EDGE('',*,*,#313,.T.);
#454=ORIENTED_EDGE('',*,*,#316,.T.);
#455=ORIENTED_EDGE('',*,*,#319,.T.);
#456=ORIENTED_EDGE('',*,*,#322,.T.);
#457=ORIENTED_EDGE('',*,*,#325,.T.);
#458=ORIENTED_EDGE('',*,*,#328,.T.);
#459=ORIENTED_EDGE('',*,*,#331,.T.);
#460=ORIENTED_EDGE('',*,*,#334,.T.);
#461=ORIENTED_EDGE('',*,*,#275,.T.);
#462=ORIENTED_EDGE('',*,*,#278,.T.);
#463=ORIENTED_EDGE('',*,*,#279,.T.);
#464=ORIENTED_EDGE('',*,*,#283,.T.);
#465=ORIENTED_EDGE('',*,*,#286,.T.);
#466=ORIENTED_EDGE('',*,*,#289,.T.);
#467=ORIENTED_EDGE('',*,*,#291,.T.);
#468=ORIENTED_EDGE('',*,*,#295,.T.);
#469=ORIENTED_EDGE('',*,*,#298,.T.);
#470=ORIENTED_EDGE('',*,*,#301,.T.);
#471=CYLINDRICAL_SURFACE('',#511,2.15);
#472=CYLINDRICAL_SURFACE('',#514,2.15);
#473=ADVANCED_FACE('',(#45),#471,.F.);
#474=ADVANCED_FACE('',(#46),#472,.F.);
#475=ADVANCED_FACE('',(#47),#23,.F.);
#476=ADVANCED_FACE('',(#48),#24,.F.);
#477=ADVANCED_FACE('',(#49),#25,.F.);
#478=ADVANCED_FACE('',(#50),#26,.F.);
#479=ADVANCED_FACE('',(#51),#27,.F.);
#480=ADVANCED_FACE('',(#52),#28,.F.);
#481=ADVANCED_FACE('',(#53),#29,.F.);
#482=ADVANCED_FACE('',(#54),#30,.F.);
#483=ADVANCED_FACE('',(#55),#31,.T.);
#484=ADVANCED_FACE('',(#56),#32,.T.);
#485=ADVANCED_FACE('',(#57),#33,.T.);
#486=ADVANCED_FACE('',(#58),#34,.T.);
#487=ADVANCED_FACE('',(#59),#35,.T.);
#488=ADVANCED_FACE('',(#60),#36,.T.);
#489=ADVANCED_FACE('',(#61),#37,.T.);
#490=ADVANCED_FACE('',(#62),#38,.T.);
#491=ADVANCED_FACE('',(#63),#39,.T.);
#492=ADVANCED_FACE('',(#64),#40,.T.);
#493=ADVANCED_FACE('',(#65),#41,.T.);
#494=ADVANCED_FACE('',(#66),#42,.T.);
#495=ADVANCED_FACE('',(#67,#15,#16,#17,#18),#43,.T.);
#496=ADVANCED_FACE('',(#68,#19,#20,#21,#22),#44,.F.);
#497=CLOSED_SHELL('',(#473,#474,#475,#476,#477,#478,#479,#480,#481,#482,
#483,#484,#485,#486,#487,#488,#489,#490,#491,#492,#493,#494,#495,#496));
#498=DERIVED_UNIT_ELEMENT(#500,1.);
#499=DERIVED_UNIT_ELEMENT(#799,-3.);
#500=(
MASS_UNIT()
NAMED_UNIT(*)
SI_UNIT(.KILO.,.GRAM.)
);
#501=DERIVED_UNIT((#498,#499));
#502=MEASURE_REPRESENTATION_ITEM('density measure',
POSITIVE_RATIO_MEASURE(7850.),#501);
#503=PROPERTY_DEFINITION_REPRESENTATION(#508,#505);
#504=PROPERTY_DEFINITION_REPRESENTATION(#509,#506);
#505=REPRESENTATION('material name',(#507),#796);
#506=REPRESENTATION('density',(#502),#796);
#507=DESCRIPTIVE_REPRESENTATION_ITEM('Steel','Steel');
#508=PROPERTY_DEFINITION('material property','material name',#806);
#509=PROPERTY_DEFINITION('material property','density of part',#806);
#510=AXIS2_PLACEMENT_3D('',#659,#539,#540);
#511=AXIS2_PLACEMENT_3D('',#660,#541,#542);
#512=AXIS2_PLACEMENT_3D('',#662,#543,#544);
#513=AXIS2_PLACEMENT_3D('',#665,#546,#547);
#514=AXIS2_PLACEMENT_3D('',#666,#548,#549);
#515=AXIS2_PLACEMENT_3D('',#668,#550,#551);
#516=AXIS2_PLACEMENT_3D('',#671,#553,#554);
#517=AXIS2_PLACEMENT_3D('',#672,#555,#556);
#518=AXIS2_PLACEMENT_3D('',#681,#561,#562);
#519=AXIS2_PLACEMENT_3D('',#687,#566,#567);
#520=AXIS2_PLACEMENT_3D('',#693,#571,#572);
#521=AXIS2_PLACEMENT_3D('',#696,#575,#576);
#522=AXIS2_PLACEMENT_3D('',#705,#581,#582);
#523=AXIS2_PLACEMENT_3D('',#711,#586,#587);
#524=AXIS2_PLACEMENT_3D('',#717,#591,#592);
#525=AXIS2_PLACEMENT_3D('',#720,#595,#596);
#526=AXIS2_PLACEMENT_3D('',#729,#601,#602);
#527=AXIS2_PLACEMENT_3D('',#735,#606,#607);
#528=AXIS2_PLACEMENT_3D('',#741,#611,#612);
#529=AXIS2_PLACEMENT_3D('',#747,#616,#617);
#530=AXIS2_PLACEMENT_3D('',#753,#621,#622);
#531=AXIS2_PLACEMENT_3D('',#759,#626,#627);
#532=AXIS2_PLACEMENT_3D('',#765,#631,#632);
#533=AXIS2_PLACEMENT_3D('',#771,#636,#637);
#534=AXIS2_PLACEMENT_3D('',#777,#641,#642);
#535=AXIS2_PLACEMENT_3D('',#783,#646,#647);
#536=AXIS2_PLACEMENT_3D('',#789,#651,#652);
#537=AXIS2_PLACEMENT_3D('',#792,#655,#656);
#538=AXIS2_PLACEMENT_3D('',#793,#657,#658);
#539=DIRECTION('axis',(0.,0.,1.));
#540=DIRECTION('refdir',(1.,0.,0.));
#541=DIRECTION('center_axis',(0.,-1.,0.));
#542=DIRECTION('ref_axis',(-1.,0.,0.));
#543=DIRECTION('center_axis',(0.,-1.,0.));
#544=DIRECTION('ref_axis',(-1.,0.,0.));
#545=DIRECTION('',(0.,-1.,0.));
#546=DIRECTION('center_axis',(0.,1.,0.));
#547=DIRECTION('ref_axis',(-1.,0.,0.));
#548=DIRECTION('center_axis',(0.,-1.,0.));
#549=DIRECTION('ref_axis',(-1.,0.,0.));
#550=DIRECTION('center_axis',(0.,-1.,0.));
#551=DIRECTION('ref_axis',(-1.,0.,0.));
#552=DIRECTION('',(0.,-1.,0.));
#553=DIRECTION('center_axis',(0.,1.,0.));
#554=DIRECTION('ref_axis',(-1.,0.,0.));
#555=DIRECTION('center_axis',(0.,0.,1.));
#556=DIRECTION('ref_axis',(-1.,0.,0.));
#557=DIRECTION('',(1.,0.,0.));
#558=DIRECTION('',(0.,-1.,0.));
#559=DIRECTION('',(-1.,0.,0.));
#560=DIRECTION('',(0.,-1.,0.));
#561=DIRECTION('center_axis',(1.,0.,0.));
#562=DIRECTION('ref_axis',(0.,0.,1.));
#563=DIRECTION('',(0.,0.,-1.));
#564=DIRECTION('',(0.,0.,1.));
#565=DIRECTION('',(0.,-1.,0.));
#566=DIRECTION('center_axis',(0.,0.,-1.));
#567=DIRECTION('ref_axis',(1.,0.,0.));
#568=DIRECTION('',(-1.,0.,0.));
#569=DIRECTION('',(1.,0.,0.));
#570=DIRECTION('',(0.,-1.,0.));
#571=DIRECTION('center_axis',(-1.,0.,0.));
#572=DIRECTION('ref_axis',(0.,0.,-1.));
#573=DIRECTION('',(0.,0.,1.));
#574=DIRECTION('',(0.,0.,-1.));
#575=DIRECTION('center_axis',(-1.,0.,0.));
#576=DIRECTION('ref_axis',(0.,0.,-1.));
#577=DIRECTION('',(0.,0.,1.));
#578=DIRECTION('',(0.,-1.,0.));
#579=DIRECTION('',(0.,0.,-1.));
#580=DIRECTION('',(0.,-1.,0.));
#581=DIRECTION('center_axis',(1.1175871339475E-8,0.,1.));
#582=DIRECTION('ref_axis',(-1.,0.,1.1175871339475E-8));
#583=DIRECTION('',(1.,0.,-1.1175871339475E-8));
#584=DIRECTION('',(-1.,0.,1.1175871339475E-8));
#585=DIRECTION('',(0.,-1.,0.));
#586=DIRECTION('center_axis',(1.,0.,0.));
#587=DIRECTION('ref_axis',(0.,0.,1.));
#588=DIRECTION('',(0.,0.,-1.));
#589=DIRECTION('',(0.,0.,1.));
#590=DIRECTION('',(0.,-1.,0.));
#591=DIRECTION('center_axis',(0.,0.,-1.));
#592=DIRECTION('ref_axis',(1.,0.,0.));
#593=DIRECTION('',(-1.,0.,0.));
#594=DIRECTION('',(1.,0.,0.));
#595=DIRECTION('center_axis',(1.,0.,0.));
#596=DIRECTION('ref_axis',(0.,0.,-1.));
#597=DIRECTION('',(0.,0.,1.));
#598=DIRECTION('',(0.,1.,0.));
#599=DIRECTION('',(0.,0.,-1.));
#600=DIRECTION('',(0.,1.,0.));
#601=DIRECTION('center_axis',(0.,0.,1.));
#602=DIRECTION('ref_axis',(1.,0.,0.));
#603=DIRECTION('',(-1.,0.,0.));
#604=DIRECTION('',(1.,0.,0.));
#605=DIRECTION('',(0.,1.,0.));
#606=DIRECTION('center_axis',(-1.,0.,0.));
#607=DIRECTION('ref_axis',(0.,0.,1.));
#608=DIRECTION('',(0.,0.,-1.));
#609=DIRECTION('',(0.,0.,1.));
#610=DIRECTION('',(0.,1.,0.));
#611=DIRECTION('center_axis',(1.55431223447522E-15,0.,1.));
#612=DIRECTION('ref_axis',(1.,0.,-1.55431223447522E-15));
#613=DIRECTION('',(-1.,0.,1.55431223447522E-15));
#614=DIRECTION('',(1.,0.,-1.55431223447522E-15));
#615=DIRECTION('',(0.,1.,0.));
#616=DIRECTION('center_axis',(-1.,0.,0.));
#617=DIRECTION('ref_axis',(0.,0.,1.));
#618=DIRECTION('',(0.,0.,-1.));
#619=DIRECTION('',(0.,0.,1.));
#620=DIRECTION('',(0.,1.,0.));
#621=DIRECTION('center_axis',(7.40148683083438E-16,0.,-1.));
#622=DIRECTION('ref_axis',(-1.,0.,-7.40148683083438E-16));
#623=DIRECTION('',(1.,0.,7.40148683083438E-16));
#624=DIRECTION('',(-1.,0.,-7.40148683083438E-16));
#625=DIRECTION('',(0.,1.,0.));
#626=DIRECTION('center_axis',(-1.,0.,0.));
#627=DIRECTION('ref_axis',(0.,0.,1.));
#628=DIRECTION('',(0.,0.,-1.));
#629=DIRECTION('',(0.,0.,1.));
#630=DIRECTION('',(0.,1.,0.));
#631=DIRECTION('center_axis',(6.19659362581483E-17,0.,-1.));
#632=DIRECTION('ref_axis',(-1.,0.,-6.19659362581483E-17));
#633=DIRECTION('',(1.,0.,6.19659362581483E-17));
#634=DIRECTION('',(-1.,0.,-6.19659362581483E-17));
#635=DIRECTION('',(0.,1.,0.));
#636=DIRECTION('center_axis',(1.,0.,0.));
#637=DIRECTION('ref_axis',(0.,0.,-1.));
#638=DIRECTION('',(0.,0.,1.));
#639=DIRECTION('',(0.,0.,-1.));
#640=DIRECTION('',(0.,1.,0.));
#641=DIRECTION('center_axis',(0.,0.,-1.));
#642=DIRECTION('ref_axis',(-1.,0.,0.));
#643=DIRECTION('',(1.,0.,0.));
#644=DIRECTION('',(-1.,0.,0.));
#645=DIRECTION('',(0.,1.,0.));
#646=DIRECTION('center_axis',(1.,0.,0.));
#647=DIRECTION('ref_axis',(0.,0.,-1.));
#648=DIRECTION('',(0.,0.,1.));
#649=DIRECTION('',(0.,0.,-1.));
#650=DIRECTION('',(0.,1.,0.));
#651=DIRECTION('center_axis',(-1.11022302462516E-16,0.,1.));
#652=DIRECTION('ref_axis',(1.,0.,1.11022302462516E-16));
#653=DIRECTION('',(-1.,0.,-1.11022302462516E-16));
#654=DIRECTION('',(1.,0.,1.11022302462516E-16));
#655=DIRECTION('center_axis',(0.,1.,0.));
#656=DIRECTION('ref_axis',(0.,0.,1.));
#657=DIRECTION('center_axis',(0.,1.,0.));
#658=DIRECTION('ref_axis',(1.,0.,0.));
#659=CARTESIAN_POINT('',(0.,0.,0.));
#660=CARTESIAN_POINT('Origin',(-57.4999998062849,5.,-9.9999999254942));
#661=CARTESIAN_POINT('',(-55.3499998062849,5.,-9.9999999254942));
#662=CARTESIAN_POINT('Origin',(-57.4999998062849,5.,-9.9999999254942));
#663=CARTESIAN_POINT('',(-55.3499998062849,0.,-9.9999999254942));
#664=CARTESIAN_POINT('',(-55.3499998062849,5.,-9.9999999254942));
#665=CARTESIAN_POINT('Origin',(-57.4999998062849,0.,-9.9999999254942));
#666=CARTESIAN_POINT('Origin',(-157.499999806285,5.,-9.9999999254942));
#667=CARTESIAN_POINT('',(-155.349999806285,5.,-9.9999999254942));
#668=CARTESIAN_POINT('Origin',(-157.499999806285,5.,-9.9999999254942));
#669=CARTESIAN_POINT('',(-155.349999806285,0.,-9.9999999254942));
#670=CARTESIAN_POINT('',(-155.349999806285,5.,-9.9999999254942));
#671=CARTESIAN_POINT('Origin',(-157.499999806285,0.,-9.9999999254942));
#672=CARTESIAN_POINT('Origin',(-219.,5.,-7.5));
#673=CARTESIAN_POINT('',(-226.,0.,-7.5));
#674=CARTESIAN_POINT('',(-219.,0.,-7.5));
#675=CARTESIAN_POINT('',(-163.25,0.,-7.5));
#676=CARTESIAN_POINT('',(-226.,5.,-7.5));
#677=CARTESIAN_POINT('',(-226.,5.,-7.5));
#678=CARTESIAN_POINT('',(-219.,5.,-7.5));
#679=CARTESIAN_POINT('',(-163.25,5.,-7.5));
#680=CARTESIAN_POINT('',(-219.,5.,-7.5));
#681=CARTESIAN_POINT('Origin',(-219.,5.,-12.5));
#682=CARTESIAN_POINT('',(-219.,0.,-12.5));
#683=CARTESIAN_POINT('',(-219.,0.,-11.25));
#684=CARTESIAN_POINT('',(-219.,5.,-12.5));
#685=CARTESIAN_POINT('',(-219.,5.,-11.25));
#686=CARTESIAN_POINT('',(-219.,5.,-12.5));
#687=CARTESIAN_POINT('Origin',(-226.,5.,-12.5));
#688=CARTESIAN_POINT('',(-226.,0.,-12.5));
#689=CARTESIAN_POINT('',(-166.75,0.,-12.5));
#690=CARTESIAN_POINT('',(-226.,5.,-12.5));
#691=CARTESIAN_POINT('',(-166.75,5.,-12.5));
#692=CARTESIAN_POINT('',(-226.,5.,-12.5));
#693=CARTESIAN_POINT('Origin',(-226.,5.,-7.5));
#694=CARTESIAN_POINT('',(-226.,0.,-8.75));
#695=CARTESIAN_POINT('',(-226.,5.,-8.75));
#696=CARTESIAN_POINT('Origin',(4.,5.,-7.49999983981251));
#697=CARTESIAN_POINT('',(4.,0.,-12.4999999180436));
#698=CARTESIAN_POINT('',(4.,0.,-7.49999983981251));
#699=CARTESIAN_POINT('',(4.,0.,-8.74999991990626));
#700=CARTESIAN_POINT('',(4.,5.,-12.4999999180436));
#701=CARTESIAN_POINT('',(4.,5.,-12.4999999180436));
#702=CARTESIAN_POINT('',(4.,5.,-7.49999983981251));
#703=CARTESIAN_POINT('',(4.,5.,-8.74999991990626));
#704=CARTESIAN_POINT('',(4.,5.,-7.49999983981251));
#705=CARTESIAN_POINT('Origin',(11.,5.,-7.49999991804361));
#706=CARTESIAN_POINT('',(11.,0.,-7.49999991804361));
#707=CARTESIAN_POINT('',(-48.2499999860302,0.,-7.49999925587324));
#708=CARTESIAN_POINT('',(11.,5.,-7.49999991804361));
#709=CARTESIAN_POINT('',(-48.2499999860302,5.,-7.49999925587324));
#710=CARTESIAN_POINT('',(11.,5.,-7.49999991804361));
#711=CARTESIAN_POINT('Origin',(11.,5.,-12.4999999180436));
#712=CARTESIAN_POINT('',(11.,0.,-12.4999999180436));
#713=CARTESIAN_POINT('',(11.,0.,-11.2499999590218));
#714=CARTESIAN_POINT('',(11.,5.,-12.4999999180436));
#715=CARTESIAN_POINT('',(11.,5.,-11.2499999590218));
#716=CARTESIAN_POINT('',(11.,5.,-12.4999999180436));
#717=CARTESIAN_POINT('Origin',(4.,5.,-12.4999999180436));
#718=CARTESIAN_POINT('',(-51.75,0.,-12.4999999180436));
#719=CARTESIAN_POINT('',(-51.75,5.,-12.4999999180436));
#720=CARTESIAN_POINT('Origin',(0.,0.,0.));
#721=CARTESIAN_POINT('',(0.,0.,-5.));
#722=CARTESIAN_POINT('',(0.,0.,0.));
#723=CARTESIAN_POINT('',(0.,0.,-5.));
#724=CARTESIAN_POINT('',(0.,5.,-5.));
#725=CARTESIAN_POINT('',(0.,0.,-5.));
#726=CARTESIAN_POINT('',(0.,5.,0.));
#727=CARTESIAN_POINT('',(0.,5.,-5.));
#728=CARTESIAN_POINT('',(0.,0.,0.));
#729=CARTESIAN_POINT('Origin',(-215.,0.,0.));
#730=CARTESIAN_POINT('',(-215.,0.,0.));
#731=CARTESIAN_POINT('',(0.,0.,0.));
#732=CARTESIAN_POINT('',(-215.,5.,0.));
#733=CARTESIAN_POINT('',(0.,5.,0.));
#734=CARTESIAN_POINT('',(-215.,0.,0.));
#735=CARTESIAN_POINT('Origin',(-215.,0.,-5.00000000000001));
#736=CARTESIAN_POINT('',(-215.,0.,-5.00000000000001));
#737=CARTESIAN_POINT('',(-215.,0.,0.));
#738=CARTESIAN_POINT('',(-215.,5.,-5.00000000000001));
#739=CARTESIAN_POINT('',(-215.,5.,0.));
#740=CARTESIAN_POINT('',(-215.,0.,-5.00000000000001));
#741=CARTESIAN_POINT('Origin',(-230.,0.,-4.99999999999998));
#742=CARTESIAN_POINT('',(-230.,0.,-4.99999999999998));
#743=CARTESIAN_POINT('',(-215.,0.,-5.00000000000001));
#744=CARTESIAN_POINT('',(-230.,5.,-4.99999999999998));
#745=CARTESIAN_POINT('',(-215.,5.,-5.00000000000001));
#746=CARTESIAN_POINT('',(-230.,0.,-4.99999999999998));
#747=CARTESIAN_POINT('Origin',(-230.,0.,-15.));
#748=CARTESIAN_POINT('',(-230.,0.,-15.));
#749=CARTESIAN_POINT('',(-230.,0.,-4.99999999999998));
#750=CARTESIAN_POINT('',(-230.,5.,-15.));
#751=CARTESIAN_POINT('',(-230.,5.,-4.99999999999998));
#752=CARTESIAN_POINT('',(-230.,0.,-15.));
#753=CARTESIAN_POINT('Origin',(-215.,0.,-15.));
#754=CARTESIAN_POINT('',(-215.,0.,-15.));
#755=CARTESIAN_POINT('',(-230.,0.,-15.));
#756=CARTESIAN_POINT('',(-215.,5.,-15.));
#757=CARTESIAN_POINT('',(-230.,5.,-15.));
#758=CARTESIAN_POINT('',(-215.,0.,-15.));
#759=CARTESIAN_POINT('Origin',(-215.,0.,-20.));
#760=CARTESIAN_POINT('',(-215.,0.,-20.));
#761=CARTESIAN_POINT('',(-215.,0.,-15.));
#762=CARTESIAN_POINT('',(-215.,5.,-20.));
#763=CARTESIAN_POINT('',(-215.,5.,-15.));
#764=CARTESIAN_POINT('',(-215.,0.,-20.));
#765=CARTESIAN_POINT('Origin',(0.,0.,-20.));
#766=CARTESIAN_POINT('',(0.,0.,-20.));
#767=CARTESIAN_POINT('',(-215.,0.,-20.));
#768=CARTESIAN_POINT('',(0.,5.,-20.));
#769=CARTESIAN_POINT('',(-215.,5.,-20.));
#770=CARTESIAN_POINT('',(0.,0.,-20.));
#771=CARTESIAN_POINT('Origin',(0.,0.,-15.));
#772=CARTESIAN_POINT('',(0.,0.,-15.));
#773=CARTESIAN_POINT('',(0.,0.,-20.));
#774=CARTESIAN_POINT('',(0.,5.,-15.));
#775=CARTESIAN_POINT('',(0.,5.,-20.));
#776=CARTESIAN_POINT('',(0.,0.,-15.));
#777=CARTESIAN_POINT('Origin',(15.,0.,-15.));
#778=CARTESIAN_POINT('',(15.,0.,-15.));
#779=CARTESIAN_POINT('',(0.,0.,-15.));
#780=CARTESIAN_POINT('',(15.,5.,-15.));
#781=CARTESIAN_POINT('',(0.,5.,-15.));
#782=CARTESIAN_POINT('',(15.,0.,-15.));
#783=CARTESIAN_POINT('Origin',(15.,0.,-5.));
#784=CARTESIAN_POINT('',(15.,0.,-5.));
#785=CARTESIAN_POINT('',(15.,0.,-15.));
#786=CARTESIAN_POINT('',(15.,5.,-5.));
#787=CARTESIAN_POINT('',(15.,5.,-15.));
#788=CARTESIAN_POINT('',(15.,0.,-5.));
#789=CARTESIAN_POINT('Origin',(0.,0.,-5.));
#790=CARTESIAN_POINT('',(15.,0.,-5.));
#791=CARTESIAN_POINT('',(15.,5.,-5.));
#792=CARTESIAN_POINT('Origin',(-107.5,5.,-10.));
#793=CARTESIAN_POINT('Origin',(-107.5,0.,-10.));
#794=UNCERTAINTY_MEASURE_WITH_UNIT(LENGTH_MEASURE(0.01),#798,
'DISTANCE_ACCURACY_VALUE',
'Maximum model space distance between geometric entities at asserted c
onnectivities');
#795=UNCERTAINTY_MEASURE_WITH_UNIT(LENGTH_MEASURE(0.01),#798,
'DISTANCE_ACCURACY_VALUE',
'Maximum model space distance between geometric entities at asserted c
onnectivities');
#796=(
GEOMETRIC_REPRESENTATION_CONTEXT(3)
GLOBAL_UNCERTAINTY_ASSIGNED_CONTEXT((#794))
GLOBAL_UNIT_ASSIGNED_CONTEXT((#798,#800,#801))
REPRESENTATION_CONTEXT('','3D')
);
#797=(
GEOMETRIC_REPRESENTATION_CONTEXT(3)
GLOBAL_UNCERTAINTY_ASSIGNED_CONTEXT((#795))
GLOBAL_UNIT_ASSIGNED_CONTEXT((#798,#800,#801))
REPRESENTATION_CONTEXT('','3D')
);
#798=(
LENGTH_UNIT()
NAMED_UNIT(*)
SI_UNIT(.MILLI.,.METRE.)
);
#799=(
LENGTH_UNIT()
NAMED_UNIT(*)
SI_UNIT($,.METRE.)
);
#800=(
NAMED_UNIT(*)
PLANE_ANGLE_UNIT()
SI_UNIT($,.RADIAN.)
);
#801=(
NAMED_UNIT(*)
SI_UNIT($,.STERADIAN.)
SOLID_ANGLE_UNIT()
);
#802=SHAPE_DEFINITION_REPRESENTATION(#803,#804);
#803=PRODUCT_DEFINITION_SHAPE('',$,#806);
#804=SHAPE_REPRESENTATION('',(#510),#796);
#805=PRODUCT_DEFINITION_CONTEXT('part definition',#810,'design');
#806=PRODUCT_DEFINITION('2026-09-01-21-10-50-623','ES-30 connector',#807,
#805);
#807=PRODUCT_DEFINITION_FORMATION('',$,#812);
#808=PRODUCT_RELATED_PRODUCT_CATEGORY('ES-30 connector',
'ES-30 connector',(#812));
#809=APPLICATION_PROTOCOL_DEFINITION('international standard',
'automotive_design',2009,#810);
#810=APPLICATION_CONTEXT(
'Core Data for Automotive Mechanical Design Process');
#811=PRODUCT_CONTEXT('part definition',#810,'mechanical');
#812=PRODUCT('2026-09-01-21-10-50-623','ES-30 connector',$,(#811));
#813=PRESENTATION_STYLE_ASSIGNMENT((#815));
#814=PRESENTATION_STYLE_ASSIGNMENT((#816));
#815=SURFACE_STYLE_USAGE(.BOTH.,#817);
#816=SURFACE_STYLE_USAGE(.BOTH.,#818);
#817=SURFACE_SIDE_STYLE('',(#819));
#818=SURFACE_SIDE_STYLE('',(#820));
#819=SURFACE_STYLE_FILL_AREA(#821);
#820=SURFACE_STYLE_FILL_AREA(#822);
#821=FILL_AREA_STYLE('Steel - Satin',(#823));
#822=FILL_AREA_STYLE('Oak',(#824));
#823=FILL_AREA_STYLE_COLOUR('Steel - Satin',#825);
#824=FILL_AREA_STYLE_COLOUR('Oak',#826);
#825=COLOUR_RGB('Steel - Satin',0.627450980392157,0.627450980392157,0.627450980392157);
#826=COLOUR_RGB('Oak',0.,0.,0.);
ENDSEC;
END-ISO-10303-21;
